<?xml version="1.0" encoding="UTF-8" standalone="no"?>
<svg xmlns:xlink="http://www.w3.org/1999/xlink" height="8.9px" width="9.0px" xmlns="http://www.w3.org/2000/svg">
  <g transform="matrix(1.0, 0.0, 0.0, 1.0, 4.5, 4.45)">
    <path d="M0.0 -4.45 L0.0 -1.95 Q0.8 -1.95 1.35 -1.4 1.95 -0.8 1.95 0.0 L1.95 0.05 4.5 0.05 M1.95 0.05 Q1.95 0.8 1.35 1.35 0.8 1.95 0.0 1.95 L0.0 4.45 M-4.5 0.05 L-1.95 0.05 -1.95 0.0 Q-1.95 -0.8 -1.4 -1.4 -0.8 -1.95 0.0 -1.95 M0.0 1.95 Q-0.8 1.95 -1.4 1.35 -1.95 0.8 -1.95 0.05" fill="none" stroke="#666666" stroke-linecap="round" stroke-linejoin="round" stroke-width="0.05"/>
  </g>
</svg>
