<?xml version="1.0" encoding="UTF-8" standalone="no"?>
<svg xmlns:xlink="http://www.w3.org/1999/xlink" height="263.6px" width="227.55px" xmlns="http://www.w3.org/2000/svg">
  <g transform="matrix(1.0, 0.0, 0.0, 1.0, -612.15, -236.9)">
    <path d="M749.8 236.9 L742.7 247.4 738.4 253.0 731.15 262.1 Q721.45 274.4 709.9 284.7 L709.75 284.45 Q708.9 280.0 703.25 279.45 L703.2 279.45 703.2 279.55 702.15 279.55 699.0 278.85 698.3 278.65 698.25 278.65 698.3 278.8 Q698.45 281.3 695.3 285.45 691.65 290.25 684.9 295.5 671.1 297.0 662.55 299.5 650.6 303.0 640.1 310.3 628.85 318.15 618.4 328.85 L617.15 330.15 612.15 335.6 614.8 337.9 619.05 334.65 Q622.25 339.6 625.65 343.0 630.8 348.25 636.75 350.25 642.65 352.25 645.85 353.5 L653.7 356.55 657.3 358.0 659.2 358.85 696.8 500.5 705.25 500.5 705.25 469.95 697.8 462.65 695.35 438.35 Q706.55 451.1 716.45 466.6 719.2 474.85 721.15 479.7 L724.35 487.7 Q724.9 489.25 728.2 496.3 L739.8 494.2 738.05 489.35 Q735.95 484.15 734.3 479.2 L733.55 476.65 Q728.85 460.65 723.35 444.6 L720.1 435.55 Q724.1 431.6 726.5 426.35 730.25 418.3 730.45 410.3 730.6 402.0 726.95 393.7 L726.05 391.45 Q723.75 384.5 724.85 377.0 L724.9 376.8 725.3 374.1 726.15 372.15 Q729.65 364.3 737.1 359.15 L738.2 358.4 744.75 352.9 752.95 345.4 745.05 342.85 740.6 341.6 Q739.5 341.65 733.85 339.95 L723.3 336.85 Q717.15 335.0 712.7 333.05 L705.75 330.15 Q703.3 329.25 700.8 327.85 L683.35 318.35 681.3 314.95 680.95 314.25 Q691.25 308.4 702.05 303.05 L703.2 302.65 Q708.3 301.25 710.95 297.6 L712.65 297.05 718.05 295.7 721.15 294.85 Q724.55 293.0 727.8 292.4 L737.95 289.65 754.9 284.65 758.8 283.5 768.35 280.7 786.5 275.65 803.35 270.9 Q821.1 265.65 838.3 259.3 L839.4 258.2 839.7 257.0 839.5 256.6 Q838.6 254.75 836.45 255.1 L816.25 261.95 Q798.85 267.55 781.15 272.05 765.9 275.95 750.9 280.4 L731.8 286.05 730.85 285.95 717.45 289.6 715.4 290.2 722.2 283.95 727.85 277.8 732.8 271.9 738.25 265.45 743.5 259.0 746.35 255.5 748.15 253.15 750.6 249.6 757.0 238.75 749.8 236.9 M694.95 345.15 Q696.9 349.35 697.9 353.9 L698.55 358.05 698.65 358.95 Q701.45 363.3 704.95 367.2 L705.75 365.65 Q708.25 361.5 709.4 356.85 L710.3 353.65 711.25 351.15 Q708.95 350.35 706.75 349.35 699.7 346.25 693.45 342.1 L694.4 343.55 694.95 345.15 M664.05 361.5 L672.8 392.15 683.1 401.45 679.9 379.55 677.75 375.95 674.25 370.75 672.3 368.3 Q668.4 364.3 664.05 361.5 M699.05 420.05 L698.1 417.9 689.95 399.25 686.8 392.5 689.1 408.1 699.05 420.05 M688.65 453.65 L681.0 423.6 689.8 432.3 693.9 458.8 688.65 453.65 M637.45 324.75 Q634.8 326.2 632.35 327.8 L636.65 331.55 Q637.35 330.0 637.25 329.1 L637.25 326.9 637.45 324.75" fill="none" stroke="#000000" stroke-linecap="round" stroke-linejoin="round" stroke-width="0.05"/>
  </g>
</svg>
