<?xml version="1.0" encoding="UTF-8" standalone="no"?>
<svg xmlns:xlink="http://www.w3.org/1999/xlink" height="263.6px" width="227.55px" xmlns="http://www.w3.org/2000/svg">
  <g transform="matrix(1.0, 0.0, 0.0, 1.0, -612.15, -236.9)">
    <path d="M749.8 236.9 L757.0 238.75 750.6 249.6 748.15 253.15 746.35 255.5 743.5 259.0 738.25 265.45 732.8 271.9 727.85 277.8 722.2 283.95 715.4 290.2 717.45 289.6 730.85 285.95 731.8 286.05 750.9 280.4 Q765.9 275.95 781.15 272.05 798.85 267.55 816.25 261.95 L836.45 255.1 Q838.6 254.75 839.5 256.6 L839.7 257.0 839.4 258.2 838.3 259.3 Q821.1 265.65 803.35 270.9 L786.5 275.65 768.35 280.7 758.8 283.5 754.9 284.65 737.95 289.65 727.8 292.4 Q724.55 293.0 721.15 294.85 L718.05 295.7 712.65 297.05 710.95 297.6 Q708.3 301.25 703.2 302.65 L702.05 303.05 Q691.25 308.4 680.95 314.25 L681.3 314.95 683.35 318.35 700.8 327.85 Q703.3 329.25 705.75 330.15 L712.7 333.05 Q717.15 335.0 723.3 336.85 L733.85 339.95 Q739.5 341.65 740.6 341.6 L745.05 342.85 752.95 345.4 744.75 352.9 738.2 358.4 737.1 359.15 Q729.65 364.3 726.15 372.15 L725.3 374.1 724.9 376.8 724.85 377.0 Q723.75 384.5 726.05 391.45 L726.95 393.7 Q730.6 402.0 730.45 410.3 730.25 418.3 726.5 426.35 724.1 431.6 720.1 435.55 L723.35 444.6 Q728.85 460.65 733.55 476.65 L734.3 479.2 Q735.95 484.15 738.05 489.35 L739.8 494.2 728.2 496.3 Q724.9 489.25 724.35 487.7 L721.15 479.7 Q719.2 474.85 716.45 466.6 706.55 451.1 695.35 438.35 L697.8 462.65 705.25 469.95 705.25 500.5 696.8 500.5 659.2 358.85 657.3 358.0 653.7 356.55 645.85 353.5 Q642.65 352.25 636.75 350.25 630.8 348.25 625.65 343.0 622.25 339.6 619.05 334.65 L614.8 337.9 612.15 335.6 617.15 330.15 618.4 328.85 Q628.85 318.15 640.1 310.3 650.6 303.0 662.55 299.5 671.1 297.0 684.9 295.5 691.65 290.25 695.3 285.45 698.45 281.3 698.3 278.8 L698.25 278.65 698.3 278.65 699.0 278.85 702.15 279.55 703.2 279.55 703.2 279.45 703.25 279.45 Q708.9 280.0 709.75 284.45 L709.9 284.7 Q721.45 274.4 731.15 262.1 L738.4 253.0 742.7 247.4 749.8 236.9 M701.55 280.0 L701.4 279.9 701.25 280.1 701.55 280.0 M694.95 345.15 Q696.9 349.35 697.9 353.9 L698.55 358.05 698.65 358.95 Q701.45 363.3 704.95 367.2 L705.75 365.65 Q708.25 361.5 709.4 356.85 L710.3 353.65 711.25 351.15 Q708.95 350.35 706.75 349.35 699.7 346.25 693.45 342.1 L694.4 343.55 694.95 345.15 M674.25 370.75 L672.3 368.3 Q668.4 364.3 664.05 361.5 L672.8 392.15 683.1 401.45 679.9 379.55 677.75 375.95 674.25 370.75 M712.2 383.85 L712.1 383.85 712.2 383.95 712.2 383.85 M698.1 417.9 L689.95 399.25 686.8 392.5 689.1 408.1 699.05 420.05 698.1 417.9 M688.65 453.65 L693.9 458.8 689.8 432.3 681.0 423.6 688.65 453.65 M637.45 324.75 Q634.8 326.2 632.35 327.8 L636.65 331.55 Q637.35 330.0 637.25 329.1 L637.25 326.9 637.45 324.75" fill="#666666" fill-rule="evenodd" stroke="none"/>
  </g>
</svg>
