<?xml version="1.0" encoding="UTF-8" standalone="no"?>
<svg xmlns:xlink="http://www.w3.org/1999/xlink" height="240.7px" width="261.9px" xmlns="http://www.w3.org/2000/svg">
  <g transform="matrix(1.0, 0.0, 0.0, 1.0, 15.45, -10.4)">
    <path d="M246.4 29.3 Q245.35 29.05 246.45 29.45 246.6 31.95 243.45 36.1 239.75 40.95 233.05 46.15 219.4 47.65 210.7 50.15 198.75 53.7 188.25 60.95 176.75 69.0 166.55 79.5 L165.3 80.8 160.3 86.25 Q155.45 91.75 151.3 97.15 141.0 110.55 125.05 137.1 102.8 172.6 85.95 206.05 74.55 228.6 65.3 251.1 L-15.45 251.1 Q38.3 180.45 80.25 130.3 115.75 87.85 133.0 71.55 158.55 47.35 183.95 37.1 193.15 33.4 207.35 31.0 205.95 30.55 204.95 29.5 200.95 28.15 187.8 25.95 175.8 23.9 175.6 23.6 172.1 18.85 172.85 16.0 173.65 12.95 179.35 10.95 L197.2 10.4 Q206.95 11.25 206.0 11.55 206.3 15.4 203.0 17.7 L246.05 28.15 246.4 29.3" fill="#ffff00" fill-rule="evenodd" stroke="none"/>
  </g>
</svg>
