<?xml version="1.0" encoding="UTF-8" standalone="no"?>
<svg xmlns:xlink="http://www.w3.org/1999/xlink" height="119.8px" width="310.6px" xmlns="http://www.w3.org/2000/svg">
  <g transform="matrix(1.0, 0.0, 0.0, 1.0, -85.85, -86.1)">
    <path d="M375.8 136.8 L292.8 103.4 325.6 102.65 396.45 129.9 375.8 136.8 M210.4 121.25 L197.1 121.25 215.75 141.4 224.3 173.5 85.85 205.9 Q102.75 172.35 124.95 136.95 140.8 110.6 151.2 97.0 155.6 91.25 160.2 86.1 L182.75 105.8 197.7 105.5 201.75 107.05 205.35 108.5 207.25 109.35 210.4 121.25 M285.15 109.65 L286.25 108.9 363.35 140.95 278.5 160.8 Q278.65 152.5 275.0 144.2 L274.1 141.95 Q271.8 135.0 272.9 127.5 L272.95 127.3 273.35 124.6 274.2 122.65 Q277.7 114.8 285.15 109.65 M220.85 142.65 L218.15 133.3 222.3 121.25 225.8 126.45 227.95 130.05 231.15 151.95 220.85 142.65 M214.75 121.25 L212.1 112.0 Q216.45 114.8 220.35 118.8 L222.3 121.25 214.75 121.25 M253.8 116.15 L253.0 117.7 Q249.5 113.8 246.7 109.45 L246.6 108.55 245.95 104.4 258.35 104.15 257.45 107.35 Q256.3 112.0 253.8 116.15" fill="#0000ff" fill-rule="evenodd" stroke="none"/>
  </g>
</svg>
