<?xml version="1.0" encoding="UTF-8" standalone="no"?>
<svg xmlns:xlink="http://www.w3.org/1999/xlink" height="141.65px" width="260.0px" xmlns="http://www.w3.org/2000/svg">
  <g transform="matrix(1.0, 0.0, 0.0, 1.0, -40.8, -48.15)">
    <path d="M202.8 136.05 L202.65 136.4 202.3 136.55 201.95 136.4 201.8 136.05 201.95 135.7 Q202.1 135.55 202.3 135.55 L202.65 135.7 202.8 136.05 M209.65 139.5 L209.8 139.85 209.65 140.2 209.3 140.35 208.95 140.2 208.8 139.85 Q208.8 139.65 208.95 139.5 209.1 139.35 209.3 139.35 209.5 139.35 209.65 139.5 M212.45 141.4 Q212.6 141.25 212.8 141.25 L213.15 141.4 213.3 141.75 213.15 142.1 212.8 142.25 212.45 142.1 212.3 141.75 212.45 141.4 M206.15 137.6 L206.3 137.95 206.15 138.3 205.8 138.45 205.45 138.3 205.3 137.95 Q205.3 137.75 205.45 137.6 205.6 137.45 205.8 137.45 L206.15 137.6 M215.95 143.3 Q216.1 143.15 216.3 143.15 L216.65 143.3 216.8 143.65 216.65 144.0 216.3 144.15 215.95 144.0 215.8 143.65 Q215.8 143.45 215.95 143.3 M219.45 145.2 Q219.6 145.05 219.8 145.05 220.0 145.05 220.15 145.2 L220.3 145.55 220.15 145.9 219.8 146.05 219.45 145.9 219.3 145.55 Q219.3 145.35 219.45 145.2 M222.95 147.1 Q223.1 146.95 223.3 146.95 L223.65 147.1 223.8 147.45 223.65 147.8 223.3 147.95 222.95 147.8 222.8 147.45 222.95 147.1 M167.8 117.05 L167.65 117.4 167.3 117.55 166.95 117.4 166.8 117.05 Q166.8 116.85 166.95 116.7 167.1 116.55 167.3 116.55 167.5 116.55 167.65 116.7 L167.8 117.05 M163.45 114.8 Q163.6 114.65 163.8 114.65 L164.15 114.8 164.3 115.15 164.15 115.5 163.8 115.65 163.45 115.5 163.3 115.15 Q163.3 114.95 163.45 114.8 M170.45 118.6 Q170.6 118.45 170.8 118.45 L171.15 118.6 171.3 118.95 171.15 119.3 170.8 119.45 170.45 119.3 170.3 118.95 170.45 118.6 M174.65 120.5 L174.8 120.85 174.65 121.2 174.3 121.35 173.95 121.2 173.8 120.85 Q173.8 120.65 173.95 120.5 174.1 120.35 174.3 120.35 L174.65 120.5 M177.45 122.4 Q177.6 122.25 177.8 122.25 178.0 122.25 178.15 122.4 L178.3 122.75 178.15 123.1 177.8 123.25 177.45 123.1 177.3 122.75 Q177.3 122.55 177.45 122.4 M180.95 124.3 Q181.1 124.15 181.3 124.15 L181.65 124.3 181.8 124.65 181.65 125.0 181.3 125.15 180.95 125.0 180.8 124.65 180.95 124.3 M195.65 131.9 L195.8 132.25 195.65 132.6 195.3 132.75 194.95 132.6 194.8 132.25 Q194.8 132.05 194.95 131.9 195.1 131.75 195.3 131.75 L195.65 131.9 M199.15 133.8 L199.3 134.15 199.15 134.5 198.8 134.65 198.45 134.5 198.3 134.15 Q198.3 133.95 198.45 133.8 198.6 133.65 198.8 133.65 199.0 133.65 199.15 133.8 M187.95 128.1 Q188.1 127.95 188.3 127.95 188.5 127.95 188.65 128.1 L188.8 128.45 188.65 128.8 188.3 128.95 187.95 128.8 187.8 128.45 Q187.8 128.25 187.95 128.1 M184.45 126.2 Q184.6 126.05 184.8 126.05 L185.15 126.2 185.3 126.55 185.15 126.9 184.8 127.05 184.45 126.9 184.3 126.55 Q184.3 126.35 184.45 126.2 M191.45 130.0 Q191.6 129.85 191.8 129.85 L192.15 130.0 192.3 130.35 192.15 130.7 191.8 130.85 191.45 130.7 191.3 130.35 191.45 130.0 M234.15 152.8 L234.3 153.15 234.15 153.5 233.8 153.65 233.45 153.5 233.3 153.15 233.45 152.8 Q233.6 152.65 233.8 152.65 L234.15 152.8 M236.95 154.7 Q237.1 154.55 237.3 154.55 L237.65 154.7 237.8 155.05 237.65 155.4 237.3 155.55 236.95 155.4 236.8 155.05 Q236.8 154.85 236.95 154.7 M240.45 156.6 Q240.6 156.45 240.8 156.45 241.0 156.45 241.15 156.6 L241.3 156.95 241.15 157.3 240.8 157.45 240.45 157.3 240.3 156.95 Q240.3 156.75 240.45 156.6 M229.95 150.9 Q230.1 150.75 230.3 150.75 230.5 150.75 230.65 150.9 L230.8 151.25 230.65 151.6 230.3 151.75 229.95 151.6 229.8 151.25 Q229.8 151.05 229.95 150.9 M227.15 149.0 L227.3 149.35 227.15 149.7 226.8 149.85 226.45 149.7 226.3 149.35 Q226.3 149.15 226.45 149.0 226.6 148.85 226.8 148.85 L227.15 149.0 M264.95 169.9 Q265.1 169.75 265.3 169.75 L265.65 169.9 265.8 170.25 265.65 170.6 265.3 170.75 264.95 170.6 264.8 170.25 264.95 169.9 M269.3 172.15 L269.15 172.5 268.8 172.65 268.45 172.5 268.3 172.15 Q268.3 171.95 268.45 171.8 268.6 171.65 268.8 171.65 L269.15 171.8 269.3 172.15 M243.95 158.5 Q244.1 158.35 244.3 158.35 L244.65 158.5 244.8 158.85 244.65 159.2 244.3 159.35 243.95 159.2 243.8 158.85 243.95 158.5 M247.45 160.4 Q247.6 160.25 247.8 160.25 L248.15 160.4 248.3 160.75 248.15 161.1 247.8 161.25 247.45 161.1 247.3 160.75 Q247.3 160.55 247.45 160.4 M250.95 162.3 Q251.1 162.15 251.3 162.15 251.5 162.15 251.65 162.3 L251.8 162.65 251.65 163.0 251.3 163.15 250.95 163.0 250.8 162.65 Q250.8 162.45 250.95 162.3 M258.8 166.45 L258.65 166.8 258.3 166.95 257.95 166.8 257.8 166.45 Q257.8 166.25 257.95 166.1 258.1 165.95 258.3 165.95 L258.65 166.1 258.8 166.45 M254.45 164.2 Q254.6 164.05 254.8 164.05 L255.15 164.2 255.3 164.55 255.15 164.9 254.8 165.05 254.45 164.9 254.3 164.55 254.45 164.2 M261.45 168.0 Q261.6 167.85 261.8 167.85 262.0 167.85 262.15 168.0 L262.3 168.35 262.15 168.7 261.8 168.85 261.45 168.7 261.3 168.35 Q261.3 168.15 261.45 168.0 M279.65 177.5 L279.8 177.85 279.65 178.2 279.3 178.35 278.95 178.2 278.8 177.85 Q278.8 177.65 278.95 177.5 279.1 177.35 279.3 177.35 L279.65 177.5 M282.8 179.25 Q283.0 179.25 283.15 179.4 L283.3 179.75 283.15 180.1 282.8 180.25 282.45 180.1 282.3 179.75 Q282.3 179.55 282.45 179.4 282.6 179.25 282.8 179.25 M276.15 175.6 L276.3 175.95 276.15 176.3 275.8 176.45 275.45 176.3 275.3 175.95 275.45 175.6 Q275.6 175.45 275.8 175.45 L276.15 175.6 M272.65 173.7 L272.8 174.05 272.65 174.4 272.3 174.55 271.95 174.4 271.8 174.05 Q271.8 173.85 271.95 173.7 272.1 173.55 272.3 173.55 272.5 173.55 272.65 173.7 M293.8 185.45 L293.65 185.8 293.3 185.95 292.95 185.8 292.8 185.45 Q292.8 185.25 292.95 185.1 293.1 184.95 293.3 184.95 293.5 184.95 293.65 185.1 L293.8 185.45 M286.65 181.3 L286.8 181.65 286.65 182.0 286.3 182.15 285.95 182.0 285.8 181.65 285.95 181.3 Q286.1 181.15 286.3 181.15 L286.65 181.3 M290.15 183.2 L290.3 183.55 290.15 183.9 289.8 184.05 289.45 183.9 289.3 183.55 Q289.3 183.35 289.45 183.2 289.6 183.05 289.8 183.05 L290.15 183.2 M299.95 188.95 Q300.1 188.8 300.3 188.8 L300.65 188.95 300.8 189.3 300.65 189.65 300.3 189.8 299.95 189.65 299.8 189.3 Q299.8 189.1 299.95 188.95 M297.15 187.05 L297.3 187.4 297.15 187.75 296.8 187.9 296.45 187.75 296.3 187.4 296.45 187.05 Q296.6 186.9 296.8 186.9 L297.15 187.05 M83.65 71.1 L83.8 71.45 83.65 71.8 83.3 71.95 82.95 71.8 82.8 71.45 Q82.8 71.25 82.95 71.1 83.1 70.95 83.3 70.95 83.5 70.95 83.65 71.1 M86.45 73.0 Q86.6 72.85 86.8 72.85 L87.15 73.0 87.3 73.35 87.15 73.7 86.8 73.85 86.45 73.7 86.3 73.35 86.45 73.0 M96.95 78.7 Q97.1 78.55 97.3 78.55 L97.65 78.7 97.8 79.05 97.65 79.4 97.3 79.55 96.95 79.4 96.8 79.05 96.95 78.7 M94.15 76.8 L94.3 77.15 94.15 77.5 93.8 77.65 93.45 77.5 93.3 77.15 Q93.3 76.95 93.45 76.8 93.6 76.65 93.8 76.65 94.0 76.65 94.15 76.8 M100.45 80.6 Q100.6 80.45 100.8 80.45 L101.15 80.6 101.3 80.95 101.15 81.3 100.8 81.45 100.45 81.3 100.3 80.95 Q100.3 80.75 100.45 80.6 M90.65 74.9 L90.8 75.25 90.65 75.6 90.3 75.75 89.95 75.6 89.8 75.25 Q89.8 75.05 89.95 74.9 90.1 74.75 90.3 74.75 L90.65 74.9 M103.95 82.5 Q104.1 82.35 104.3 82.35 104.5 82.35 104.65 82.5 L104.8 82.85 104.65 83.2 104.3 83.35 103.95 83.2 103.8 82.85 Q103.8 82.65 103.95 82.5 M108.15 84.4 L108.3 84.75 108.15 85.1 107.8 85.25 107.45 85.1 107.3 84.75 107.45 84.4 Q107.6 84.25 107.8 84.25 L108.15 84.4 M111.3 86.15 L111.65 86.3 111.8 86.65 111.65 87.0 111.3 87.15 110.95 87.0 110.8 86.65 Q110.8 86.45 110.95 86.3 111.1 86.15 111.3 86.15 M118.65 90.1 L118.8 90.45 118.65 90.8 118.3 90.95 117.95 90.8 117.8 90.45 117.95 90.1 Q118.1 89.95 118.3 89.95 L118.65 90.1 M121.45 92.0 Q121.6 91.85 121.8 91.85 L122.15 92.0 122.3 92.35 122.15 92.7 121.8 92.85 121.45 92.7 121.3 92.35 Q121.3 92.15 121.45 92.0 M114.45 88.2 Q114.6 88.05 114.8 88.05 115.0 88.05 115.15 88.2 L115.3 88.55 115.15 88.9 114.8 89.05 114.45 88.9 114.3 88.55 Q114.3 88.35 114.45 88.2 M124.95 93.9 Q125.1 93.75 125.3 93.75 125.5 93.75 125.65 93.9 L125.8 94.25 125.65 94.6 125.3 94.75 124.95 94.6 124.8 94.25 Q124.8 94.05 124.95 93.9 M128.45 95.8 Q128.6 95.65 128.8 95.65 L129.15 95.8 129.3 96.15 129.15 96.5 128.8 96.65 128.45 96.5 128.3 96.15 128.45 95.8 M131.95 97.7 Q132.1 97.55 132.3 97.55 L132.65 97.7 132.8 98.05 132.65 98.4 132.3 98.55 131.95 98.4 131.8 98.05 Q131.8 97.85 131.95 97.7 M40.95 48.3 Q41.1 48.15 41.3 48.15 41.5 48.15 41.65 48.3 L41.8 48.65 41.65 49.0 41.3 49.15 40.95 49.0 40.8 48.65 Q40.8 48.45 40.95 48.3 M62.65 59.7 L62.8 60.05 62.65 60.4 62.3 60.55 61.95 60.4 61.8 60.05 Q61.8 59.85 61.95 59.7 62.1 59.55 62.3 59.55 62.5 59.55 62.65 59.7 M65.8 61.45 L66.15 61.6 66.3 61.95 66.15 62.3 65.8 62.45 65.45 62.3 65.3 61.95 65.45 61.6 Q65.6 61.45 65.8 61.45 M68.8 63.85 Q68.8 63.65 68.95 63.5 69.1 63.35 69.3 63.35 L69.65 63.5 69.8 63.85 69.65 64.2 69.3 64.35 68.95 64.2 68.8 63.85 M76.8 67.65 L76.65 68.0 76.3 68.15 75.95 68.0 75.8 67.65 75.95 67.3 Q76.1 67.15 76.3 67.15 L76.65 67.3 76.8 67.65 M73.15 65.4 L73.3 65.75 73.15 66.1 72.8 66.25 72.45 66.1 72.3 65.75 Q72.3 65.55 72.45 65.4 72.6 65.25 72.8 65.25 73.0 65.25 73.15 65.4 M79.45 69.2 Q79.6 69.05 79.8 69.05 L80.15 69.2 80.3 69.55 80.15 69.9 79.8 70.05 79.45 69.9 79.3 69.55 Q79.3 69.35 79.45 69.2 M52.15 54.0 L52.3 54.35 52.15 54.7 51.8 54.85 51.45 54.7 51.3 54.35 Q51.3 54.15 51.45 54.0 51.6 53.85 51.8 53.85 52.0 53.85 52.15 54.0 M54.95 55.9 Q55.1 55.75 55.3 55.75 L55.65 55.9 55.8 56.25 55.65 56.6 55.3 56.75 54.95 56.6 54.8 56.25 54.95 55.9 M58.45 57.8 Q58.6 57.65 58.8 57.65 L59.15 57.8 59.3 58.15 59.15 58.5 58.8 58.65 58.45 58.5 58.3 58.15 Q58.3 57.95 58.45 57.8 M47.95 52.1 Q48.1 51.95 48.3 51.95 L48.65 52.1 48.8 52.45 48.65 52.8 48.3 52.95 47.95 52.8 47.8 52.45 Q47.8 52.25 47.95 52.1 M45.15 50.2 L45.3 50.55 45.15 50.9 44.8 51.05 44.45 50.9 44.3 50.55 44.45 50.2 Q44.6 50.05 44.8 50.05 L45.15 50.2 M152.95 109.1 Q153.1 108.95 153.3 108.95 L153.65 109.1 153.8 109.45 153.65 109.8 153.3 109.95 152.95 109.8 152.8 109.45 Q152.8 109.25 152.95 109.1 M156.45 111.0 Q156.6 110.85 156.8 110.85 157.0 110.85 157.15 111.0 L157.3 111.35 157.15 111.7 156.8 111.85 156.45 111.7 156.3 111.35 Q156.3 111.15 156.45 111.0 M142.45 103.4 Q142.6 103.25 142.8 103.25 L143.15 103.4 143.3 103.75 143.15 104.1 142.8 104.25 142.45 104.1 142.3 103.75 Q142.3 103.55 142.45 103.4 M145.95 105.3 Q146.1 105.15 146.3 105.15 146.5 105.15 146.65 105.3 L146.8 105.65 146.65 106.0 146.3 106.15 145.95 106.0 145.8 105.65 Q145.8 105.45 145.95 105.3 M149.45 107.2 Q149.6 107.05 149.8 107.05 L150.15 107.2 150.3 107.55 150.15 107.9 149.8 108.05 149.45 107.9 149.3 107.55 149.45 107.2 M159.95 112.9 Q160.1 112.75 160.3 112.75 L160.65 112.9 160.8 113.25 160.65 113.6 160.3 113.75 159.95 113.6 159.8 113.25 159.95 112.9 M138.95 101.5 Q139.1 101.35 139.3 101.35 L139.65 101.5 139.8 101.85 139.65 102.2 139.3 102.35 138.95 102.2 138.8 101.85 138.95 101.5 M136.15 99.6 L136.3 99.95 136.15 100.3 135.8 100.45 135.45 100.3 135.3 99.95 Q135.3 99.75 135.45 99.6 135.6 99.45 135.8 99.45 136.0 99.45 136.15 99.6" fill="#000000" fill-rule="evenodd" stroke="none"/>
  </g>
</svg>
