<?xml version="1.0" encoding="UTF-8" standalone="no"?>
<svg xmlns:xlink="http://www.w3.org/1999/xlink" height="212.4px" width="642.15px" xmlns="http://www.w3.org/2000/svg">
  <g transform="matrix(1.0, 0.0, 0.0, 1.0, 265.1, -44.55)">
    <path d="M377.05 122.35 L377.05 204.55 Q348.95 194.25 336.25 243.05 L294.95 256.95 -132.0 256.95 -220.6 243.05 -259.55 243.05 -264.35 233.35 Q-266.4 225.4 -262.75 219.85 -258.95 211.5 -255.2 208.55 -253.05 204.9 -251.4 203.3 L-250.2 202.35 Q-245.5 193.65 -243.2 192.4 -154.95 165.2 -46.6 146.3 -43.3 148.7 -40.05 147.5 L-34.65 140.65 Q-39.85 143.35 -45.15 140.15 -46.6 125.4 -38.85 122.95 -31.1 120.45 -27.0 126.35 -24.05 124.85 -21.95 126.65 L22.55 89.15 Q25.95 86.35 31.35 85.35 49.05 80.9 68.65 79.2 L64.65 73.45 64.65 68.85 Q64.65 67.15 58.5 66.65 51.55 59.8 58.55 52.25 61.8 50.65 70.3 49.55 L177.1 44.55 Q194.1 44.15 198.2 55.75 200.4 68.0 190.3 70.9 L188.1 72.5 190.3 72.55 Q246.6 73.75 290.85 79.1 303.0 83.9 338.8 116.9 L377.05 122.35 M212.5 92.95 Q226.1 127.4 230.45 163.35 L322.9 146.65 Q304.8 113.75 279.15 87.55 L212.5 92.95 M214.2 165.85 Q209.9 128.25 194.2 95.45 165.75 98.3 135.9 105.45 L101.35 181.65 111.3 183.75 119.65 183.75 121.3 180.4 115.9 176.65 Q114.4 168.1 117.1 163.35 119.6 159.0 123.85 159.6 137.0 158.95 144.2 161.7 148.65 166.75 148.8 174.6 L145.9 179.6 214.2 165.85 M75.95 181.7 L83.05 172.5 Q62.85 168.7 65.45 163.05 71.8 149.35 81.75 147.1 90.9 147.45 94.25 155.0 L122.2 100.05 Q75.25 92.95 25.15 90.45 L-35.25 144.2 -35.25 147.95 Q-23.8 152.75 -12.05 157.05 25.8 170.95 66.55 179.75 L75.95 181.7" fill="url(#gradient0)" fill-rule="evenodd" stroke="none"/>
  </g>
  <defs>
    <radialGradient cx="0" cy="0" gradientTransform="matrix(0.7466, 0.0, 0.0, 0.7466, 341.75, 153.3)" gradientUnits="userSpaceOnUse" id="gradient0" r="819.2" spreadMethod="pad">
      <stop offset="0.0" stop-color="#3366ff"/>
      <stop offset="1.0" stop-color="#000000"/>
    </radialGradient>
  </defs>
</svg>
