<?xml version="1.0" encoding="UTF-8" standalone="no"?>
<svg xmlns:xlink="http://www.w3.org/1999/xlink" height="233.45px" width="422.1px" xmlns="http://www.w3.org/2000/svg">
  <g transform="matrix(1.0, 0.0, 0.0, 1.0, 211.05, 116.7)">
    <path d="M60.1 -74.45 L65.4 -71.8 65.45 -71.75 73.25 -67.9 81.3 -56.2 74.9 -51.8 103.85 -9.7 158.45 15.25 Q171.1 6.75 177.9 10.25 182.9 6.9 186.5 7.5 L186.6 7.5 186.6 7.55 186.45 8.5 178.9 13.7 Q181.2 18.15 195.65 19.55 L200.45 16.25 201.2 17.35 197.85 21.55 Q204.45 28.25 208.35 36.85 L210.75 35.2 211.05 38.8 209.05 40.2 Q206.7 80.1 156.75 110.7 124.4 127.9 101.65 96.15 90.85 79.45 99.55 59.55 L100.4 55.7 103.9 52.45 103.85 -7.35 74.25 -50.4 72.6 -49.25 73.35 -48.15 70.6 -46.25 69.25 -48.2 66.25 -46.1 64.65 -48.45 66.4 -49.65 62.25 -55.7 61.7 -60.95 48.0 -62.6 44.3 -60.1 43.05 -61.9 42.55 -62.15 26.65 -62.7 25.25 -61.45 12.5 -52.7 -47.25 -47.55 -73.75 -29.3 -84.9 -31.05 -120.9 45.0 -211.05 21.0 -131.55 -67.6 -66.0 -112.7 -60.0 -111.2 -56.2 -116.7 Q-39.35 -109.2 -22.25 -103.0 L-8.1 -112.75 3.75 -95.1 3.7 -95.05 4.0 -94.7 4.05 -94.9 29.7 -85.55 30.35 -86.85 36.8 -91.3 39.35 -90.0 44.3 -80.25 60.1 -74.45 M156.45 15.6 L106.0 -6.6 131.65 30.7 Q143.75 22.35 156.45 15.6 M109.25 47.95 Q119.65 39.05 130.55 31.5 L105.2 -5.4 109.25 47.95" fill="#990000" fill-rule="evenodd" stroke="none"/>
  </g>
</svg>
