<?xml version="1.0" encoding="UTF-8" standalone="no"?>
<svg xmlns:xlink="http://www.w3.org/1999/xlink" height="240.7px" width="261.9px" xmlns="http://www.w3.org/2000/svg">
  <g transform="matrix(1.0, 0.0, 0.0, 1.0, -436.4, -259.75)">
    <path d="M436.4 500.45 L517.15 500.45 Q526.2 478.35 537.8 455.4 554.7 421.85 576.9 386.45 592.75 360.1 603.15 346.5 607.55 340.75 612.15 335.6 L617.15 330.15 618.4 328.85 Q628.85 318.15 640.1 310.3 650.6 303.0 662.55 299.5 671.1 297.0 684.9 295.5 691.65 290.25 695.3 285.45 698.45 281.3 698.3 278.8 697.25 278.4 698.25 278.65 L697.9 277.5 654.85 267.05 Q658.55 264.65 657.85 260.9 658.9 260.0 649.05 259.75 L631.1 259.75 Q619.55 264.45 626.15 273.05 L659.25 280.9 Q644.95 282.1 627.9 289.8 L623.4 292.4 Q618.15 295.55 612.45 299.7 550.3 344.55 436.4 500.45" fill="#666666" fill-rule="evenodd" stroke="none">
      <animate attributeName="fill" dur="2s" repeatCount="indefinite" values="#666666;#ffffff"/>
      <animate attributeName="fill-opacity" dur="2s" repeatCount="indefinite" values="1.0;1.0"/>
      <animate attributeName="d" dur="2s" repeatCount="indefinite" values="M436.4 500.45 L517.15 500.45 Q526.2 478.35 537.8 455.4 554.7 421.85 576.9 386.45 592.75 360.1 603.15 346.5 607.55 340.75 612.15 335.6 L617.15 330.15 618.4 328.85 Q628.85 318.15 640.1 310.3 650.6 303.0 662.55 299.5 671.1 297.0 684.9 295.5 691.65 290.25 695.3 285.45 698.45 281.3 698.3 278.8 697.25 278.4 698.25 278.65 L697.9 277.5 654.85 267.05 Q658.55 264.65 657.85 260.9 658.9 260.0 649.05 259.75 L631.1 259.75 Q619.55 264.45 626.15 273.05 L659.25 280.9 Q644.95 282.1 627.9 289.8 L623.4 292.4 Q618.15 295.55 612.45 299.7 550.3 344.55 436.4 500.45;M436.4 500.45 L517.15 500.45 Q526.2 478.35 537.8 455.4 554.7 421.85 576.9 386.45 592.75 360.1 603.15 346.5 607.55 340.75 612.15 335.6 L617.15 330.15 618.4 328.85 Q628.85 318.15 640.1 310.3 650.6 303.0 662.55 299.5 671.1 297.0 684.9 295.5 691.65 290.25 695.3 285.45 698.45 281.3 698.3 278.8 697.25 278.4 698.25 278.65 L697.9 277.5 654.85 267.05 Q658.55 264.65 657.85 260.9 658.9 260.0 649.05 259.75 L631.1 259.75 Q619.55 264.45 626.15 273.05 L659.25 280.9 Q644.95 282.1 627.9 289.8 L623.4 292.4 Q618.15 295.55 612.45 299.7 550.3 344.55 436.4 500.45"/>
    </path>
    <path d="M436.4 500.45 Q550.3 344.55 612.45 299.7 618.15 295.55 623.4 292.4 L627.9 289.8 Q644.95 282.1 659.25 280.9 L626.15 273.05 Q619.55 264.45 631.1 259.75 L649.05 259.75 Q658.9 260.0 657.85 260.9 658.55 264.65 654.85 267.05 L697.9 277.5 698.25 278.65 Q697.25 278.4 698.3 278.8 698.45 281.3 695.3 285.45 691.65 290.25 684.9 295.5 671.1 297.0 662.55 299.5 650.6 303.0 640.1 310.3 628.85 318.15 618.4 328.85 L617.15 330.15 612.15 335.6 Q607.55 340.75 603.15 346.5 592.75 360.1 576.9 386.45 554.7 421.85 537.8 455.4 526.2 478.35 517.15 500.45 L436.4 500.45" fill="none" stroke="#000000" stroke-linecap="round" stroke-linejoin="round" stroke-opacity="0.0" stroke-width="1.0">
      <animate attributeName="stroke" dur="2s" repeatCount="indefinite" values="#000000;#000001"/>
      <animate attributeName="stroke-width" dur="2s" repeatCount="indefinite" values="0.0;0.0"/>
      <animate attributeName="fill-opacity" dur="2s" repeatCount="indefinite" values="0.0;0.0"/>
      <animate attributeName="d" dur="2s" repeatCount="indefinite" values="M436.4 500.45 Q550.3 344.55 612.45 299.7 618.15 295.55 623.4 292.4 L627.9 289.8 Q644.95 282.1 659.25 280.9 L626.15 273.05 Q619.55 264.45 631.1 259.75 L649.05 259.75 Q658.9 260.0 657.85 260.9 658.55 264.65 654.85 267.05 L697.9 277.5 698.25 278.65 Q697.25 278.4 698.3 278.8 698.45 281.3 695.3 285.45 691.65 290.25 684.9 295.5 671.1 297.0 662.55 299.5 650.6 303.0 640.1 310.3 628.85 318.15 618.4 328.85 L617.15 330.15 612.15 335.6 Q607.55 340.75 603.15 346.5 592.75 360.1 576.9 386.45 554.7 421.85 537.8 455.4 526.2 478.35 517.15 500.45 L436.4 500.45;M436.4 500.45 Q550.3 344.55 612.45 299.7 618.15 295.55 623.4 292.4 L627.9 289.8 Q644.95 282.1 659.25 280.9 L626.15 273.05 Q619.55 264.45 631.1 259.75 L649.05 259.75 Q658.9 260.0 657.85 260.9 658.55 264.65 654.85 267.05 L697.9 277.5 698.25 278.65 Q697.25 278.4 698.3 278.8 698.45 281.3 695.3 285.45 691.65 290.25 684.9 295.5 671.1 297.0 662.55 299.5 650.6 303.0 640.1 310.3 628.85 318.15 618.4 328.85 L617.15 330.15 612.15 335.6 Q607.55 340.75 603.15 346.5 592.75 360.1 576.9 386.45 554.7 421.85 537.8 455.4 526.2 478.35 517.15 500.45 L436.4 500.45"/>
    </path>
  </g>
</svg>
