<?xml version="1.0" encoding="UTF-8" standalone="no"?>
<svg xmlns:xlink="http://www.w3.org/1999/xlink" height="257.05px" width="657.5px" xmlns="http://www.w3.org/2000/svg">
  <g transform="matrix(1.0, 0.0, 0.0, 1.0, -1.75, -243.5)">
    <path d="M1.75 500.55 L436.4 500.45 Q550.3 344.55 612.45 299.7 618.15 295.55 623.4 292.4 L627.9 289.8 Q644.95 282.1 659.25 280.9 L626.15 273.05 Q619.55 264.45 631.1 259.75 L649.05 259.75 617.9 243.5 506.3 291.6 1.75 500.55" fill="#666666" fill-rule="evenodd" stroke="none">
      <animate attributeName="fill" dur="2s" repeatCount="indefinite" values="#666666;#ffffff"/>
      <animate attributeName="fill-opacity" dur="2s" repeatCount="indefinite" values="1.0;1.0"/>
      <animate attributeName="d" dur="2s" repeatCount="indefinite" values="M1.75 500.55 L436.4 500.45 Q550.3 344.55 612.45 299.7 618.15 295.55 623.4 292.4 L627.9 289.8 Q644.95 282.1 659.25 280.9 L626.15 273.05 Q619.55 264.45 631.1 259.75 L649.05 259.75 617.9 243.5 506.3 291.6 1.75 500.55;M1.75 500.55 L436.4 500.45 Q550.3 344.55 612.45 299.7 618.15 295.55 623.4 292.4 L627.9 289.8 Q644.95 282.1 659.25 280.9 L626.15 273.05 Q619.55 264.45 631.1 259.75 L649.05 259.75 617.9 243.5 506.3 291.6 1.75 500.55"/>
    </path>
    <path d="M1.75 500.55 L506.3 291.6 617.9 243.5 649.05 259.75 631.1 259.75 Q619.55 264.45 626.15 273.05 L659.25 280.9 Q644.95 282.1 627.9 289.8 L623.4 292.4 Q618.15 295.55 612.45 299.7 550.3 344.55 436.4 500.45 L1.75 500.55" fill="none" stroke="#000000" stroke-linecap="round" stroke-linejoin="round" stroke-opacity="0.0" stroke-width="1.0">
      <animate attributeName="stroke" dur="2s" repeatCount="indefinite" values="#000000;#000001"/>
      <animate attributeName="stroke-width" dur="2s" repeatCount="indefinite" values="0.0;0.0"/>
      <animate attributeName="fill-opacity" dur="2s" repeatCount="indefinite" values="0.0;0.0"/>
      <animate attributeName="d" dur="2s" repeatCount="indefinite" values="M1.75 500.55 L506.3 291.6 617.9 243.5 649.05 259.75 631.1 259.75 Q619.55 264.45 626.15 273.05 L659.25 280.9 Q644.95 282.1 627.9 289.8 L623.4 292.4 Q618.15 295.55 612.45 299.7 550.3 344.55 436.4 500.45 L1.75 500.55;M1.75 500.55 L506.3 291.6 617.9 243.5 649.05 259.75 631.1 259.75 Q619.55 264.45 626.15 273.05 L659.25 280.9 Q644.95 282.1 627.9 289.8 L623.4 292.4 Q618.15 295.55 612.45 299.7 550.3 344.55 436.4 500.45 L1.75 500.55"/>
    </path>
  </g>
</svg>
