<?xml version="1.0" encoding="UTF-8" standalone="no"?>
<svg xmlns:xlink="http://www.w3.org/1999/xlink" height="119.8px" width="310.6px" xmlns="http://www.w3.org/2000/svg">
  <g transform="matrix(1.0, 0.0, 0.0, 1.0, -537.8, -335.6)">
    <path d="M744.75 352.9 L827.75 386.3 848.4 379.4 777.55 352.15 744.75 352.9 M724.85 377.0 Q723.75 384.5 726.05 391.45 L726.95 393.7 Q730.6 402.0 730.45 410.3 L815.3 390.45 738.2 358.4 737.1 359.15 Q729.65 364.3 726.15 372.15 725.75 373.1 724.9 376.8 L724.85 377.0 M697.9 353.9 L698.65 358.95 Q701.45 363.3 705.75 365.65 708.25 361.5 709.4 356.85 L710.3 353.65 697.9 353.9 M537.8 455.4 L676.25 423.0 667.7 390.9 649.05 370.75 662.35 370.75 Q660.8 364.8 657.3 358.0 L653.7 356.55 649.65 355.0 634.7 355.3 612.15 335.6 Q607.55 340.75 603.15 346.5 592.75 360.1 576.9 386.45 554.7 421.85 537.8 455.4 M670.1 382.8 L672.8 392.15 683.1 401.45 679.9 379.55 677.75 375.95 674.25 370.75 670.1 382.8 M664.05 361.5 L666.7 370.75 674.25 370.75 672.3 368.3 Q668.4 364.3 664.05 361.5" fill="#666666" fill-rule="evenodd" stroke="none">
      <animate attributeName="fill" dur="2s" repeatCount="indefinite" values="#666666;#ffffff"/>
      <animate attributeName="fill-opacity" dur="2s" repeatCount="indefinite" values="1.0;1.0"/>
      <animate attributeName="d" dur="2s" repeatCount="indefinite" values="M744.75 352.9 L827.75 386.3 848.4 379.4 777.55 352.15 744.75 352.9 M724.85 377.0 Q723.75 384.5 726.05 391.45 L726.95 393.7 Q730.6 402.0 730.45 410.3 L815.3 390.45 738.2 358.4 737.1 359.15 Q729.65 364.3 726.15 372.15 725.75 373.1 724.9 376.8 L724.85 377.0 M697.9 353.9 L698.65 358.95 Q701.45 363.3 705.75 365.65 708.25 361.5 709.4 356.85 L710.3 353.65 697.9 353.9 M537.8 455.4 L676.25 423.0 667.7 390.9 649.05 370.75 662.35 370.75 Q660.8 364.8 657.3 358.0 L653.7 356.55 649.65 355.0 634.7 355.3 612.15 335.6 Q607.55 340.75 603.15 346.5 592.75 360.1 576.9 386.45 554.7 421.85 537.8 455.4 M670.1 382.8 L672.8 392.15 683.1 401.45 679.9 379.55 677.75 375.95 674.25 370.75 670.1 382.8 M664.05 361.5 L666.7 370.75 674.25 370.75 672.3 368.3 Q668.4 364.3 664.05 361.5;M744.75 352.9 L827.75 386.3 848.4 379.4 777.55 352.15 744.75 352.9 M724.85 377.0 Q723.75 384.5 726.05 391.45 L726.95 393.7 Q730.6 402.0 730.45 410.3 L815.3 390.45 738.2 358.4 737.1 359.15 Q729.65 364.3 726.15 372.15 725.75 373.1 724.9 376.8 L724.85 377.0 M697.9 353.9 L698.65 358.95 Q701.45 363.3 705.75 365.65 708.25 361.5 709.4 356.85 L710.3 353.65 697.9 353.9 M537.8 455.4 L676.25 423.0 667.7 390.9 649.05 370.75 662.35 370.75 Q660.8 364.8 657.3 358.0 L653.7 356.55 649.65 355.0 634.7 355.3 612.15 335.6 Q607.55 340.75 603.15 346.5 592.75 360.1 576.9 386.45 554.7 421.85 537.8 455.4 M670.1 382.8 L672.8 392.15 683.1 401.45 679.9 379.55 677.75 375.95 674.25 370.75 670.1 382.8 M664.05 361.5 L666.7 370.75 674.25 370.75 672.3 368.3 Q668.4 364.3 664.05 361.5"/>
    </path>
    <path d="M664.05 361.5 Q668.4 364.3 672.3 368.3 L674.25 370.75 666.7 370.75 664.05 361.5 M670.1 382.8 L674.25 370.75 677.75 375.95 679.9 379.55 683.1 401.45 672.8 392.15 670.1 382.8 M537.8 455.4 Q554.7 421.85 576.9 386.45 592.75 360.1 603.15 346.5 607.55 340.75 612.15 335.6 L634.7 355.3 649.65 355.0 653.7 356.55 657.3 358.0 Q660.8 364.8 662.35 370.75 L649.05 370.75 667.7 390.9 676.25 423.0 537.8 455.4 M697.9 353.9 L710.3 353.65 709.4 356.85 Q708.25 361.5 705.75 365.65 701.45 363.3 698.65 358.95 L697.9 353.9 M724.85 377.0 L724.9 376.8 Q725.75 373.1 726.15 372.15 729.65 364.3 737.1 359.15 L738.2 358.4 815.3 390.45 730.45 410.3 Q730.6 402.0 726.95 393.7 L726.05 391.45 Q723.75 384.5 724.85 377.0 M744.75 352.9 L777.55 352.15 848.4 379.4 827.75 386.3 744.75 352.9" fill="none" stroke="#000000" stroke-linecap="round" stroke-linejoin="round" stroke-opacity="0.0" stroke-width="1.0">
      <animate attributeName="stroke" dur="2s" repeatCount="indefinite" values="#000000;#000001"/>
      <animate attributeName="stroke-width" dur="2s" repeatCount="indefinite" values="0.0;0.0"/>
      <animate attributeName="fill-opacity" dur="2s" repeatCount="indefinite" values="0.0;0.0"/>
      <animate attributeName="d" dur="2s" repeatCount="indefinite" values="M664.05 361.5 Q668.4 364.3 672.3 368.3 L674.25 370.75 666.7 370.75 664.05 361.5 M670.1 382.8 L674.25 370.75 677.75 375.95 679.9 379.55 683.1 401.45 672.8 392.15 670.1 382.8 M537.8 455.4 Q554.7 421.85 576.9 386.45 592.75 360.1 603.15 346.5 607.55 340.75 612.15 335.6 L634.7 355.3 649.65 355.0 653.7 356.55 657.3 358.0 Q660.8 364.8 662.35 370.75 L649.05 370.75 667.7 390.9 676.25 423.0 537.8 455.4 M697.9 353.9 L710.3 353.65 709.4 356.85 Q708.25 361.5 705.75 365.65 701.45 363.3 698.65 358.95 L697.9 353.9 M724.85 377.0 L724.9 376.8 Q725.75 373.1 726.15 372.15 729.65 364.3 737.1 359.15 L738.2 358.4 815.3 390.45 730.45 410.3 Q730.6 402.0 726.95 393.7 L726.05 391.45 Q723.75 384.5 724.85 377.0 M744.75 352.9 L777.55 352.15 848.4 379.4 827.75 386.3 744.75 352.9;M664.05 361.5 Q668.4 364.3 672.3 368.3 L674.25 370.75 666.7 370.75 664.05 361.5 M670.1 382.8 L674.25 370.75 677.75 375.95 679.9 379.55 683.1 401.45 672.8 392.15 670.1 382.8 M537.8 455.4 Q554.7 421.85 576.9 386.45 592.75 360.1 603.15 346.5 607.55 340.75 612.15 335.6 L634.7 355.3 649.65 355.0 653.7 356.55 657.3 358.0 Q660.8 364.8 662.35 370.75 L649.05 370.75 667.7 390.9 676.25 423.0 537.8 455.4 M697.9 353.9 L710.3 353.65 709.4 356.85 Q708.25 361.5 705.75 365.65 701.45 363.3 698.65 358.95 L697.9 353.9 M724.85 377.0 L724.9 376.8 Q725.75 373.1 726.15 372.15 729.65 364.3 737.1 359.15 L738.2 358.4 815.3 390.45 730.45 410.3 Q730.6 402.0 726.95 393.7 L726.05 391.45 Q723.75 384.5 724.85 377.0 M744.75 352.9 L777.55 352.15 848.4 379.4 827.75 386.3 744.75 352.9"/>
    </path>
  </g>
</svg>
