<?xml version="1.0" encoding="UTF-8" standalone="no"?>
<svg xmlns:xlink="http://www.w3.org/1999/xlink" height="240.7px" width="261.9px" xmlns="http://www.w3.org/2000/svg">
  <g transform="matrix(1.0, 0.0, 0.0, 1.0, -436.4, -259.75)">
    <path d="M654.85 267.05 L697.9 277.5 698.25 278.65 Q697.25 278.4 698.3 278.8 698.45 281.3 695.3 285.45 691.65 290.25 684.9 295.5 671.1 297.0 662.55 299.5 650.6 303.0 640.1 310.3 628.85 318.15 618.4 328.85 L617.15 330.15 612.15 335.6 Q607.55 340.75 603.15 346.5 592.75 360.1 576.9 386.45 554.7 421.85 537.8 455.4 526.2 478.35 517.15 500.45 L436.4 500.45 Q550.3 344.55 612.45 299.7 618.15 295.55 623.4 292.4 L627.9 289.8 Q644.95 282.1 659.25 280.9 L626.15 273.05 Q619.55 264.45 631.1 259.75 L649.05 259.75 Q658.9 260.0 657.85 260.9 658.55 264.65 654.85 267.05 Z" fill="none" stroke="#999999" stroke-linecap="round" stroke-linejoin="round" stroke-width="0.05"/>
  </g>
</svg>
