<?xml version="1.0" encoding="UTF-8" standalone="no"?>
<svg xmlns:xlink="http://www.w3.org/1999/xlink" height="119.8px" width="310.6px" xmlns="http://www.w3.org/2000/svg">
  <g transform="matrix(1.0, 0.0, 0.0, 1.0, -537.8, -335.6)">
    <path d="M672.3 368.3 L674.25 370.75 666.7 370.75 664.05 361.5 Q668.4 364.3 672.3 368.3 M659.2 358.85 L662.35 370.75 649.05 370.75 667.7 390.9 676.25 423.0 537.8 455.4 Q554.7 421.85 576.9 386.45 592.75 360.1 603.15 346.5 607.55 340.75 612.15 335.6 L634.7 355.3 649.65 355.0 653.7 356.55 657.3 358.0 659.2 358.85 M677.75 375.95 L679.9 379.55 683.1 401.45 672.8 392.15 670.1 382.8 674.25 370.75 677.75 375.95 M709.4 356.85 Q708.25 361.5 705.75 365.65 L704.95 367.2 Q701.45 363.3 698.65 358.95 L698.55 358.05 697.9 353.9 710.3 353.65 709.4 356.85 M724.9 376.8 L725.3 374.1 726.15 372.15 Q729.65 364.3 737.1 359.15 L738.2 358.4 815.3 390.45 730.45 410.3 Q730.6 402.0 726.95 393.7 L726.05 391.45 Q723.75 384.5 724.85 377.0 L724.9 376.8 M777.55 352.15 L848.4 379.4 827.75 386.3 744.75 352.9 777.55 352.15" fill="#ffffff" fill-rule="evenodd" stroke="none"/>
  </g>
</svg>
