<?xml version="1.0" encoding="UTF-8" standalone="no"?>
<svg xmlns:xlink="http://www.w3.org/1999/xlink" height="263.6px" width="227.55px" xmlns="http://www.w3.org/2000/svg">
  <g transform="matrix(1.0, 0.0, 0.0, 1.0, -160.2, 12.6)">
    <path d="M297.85 -12.6 L305.05 -10.75 Q300.05 -1.9 298.65 0.1 L296.2 3.65 294.4 6.0 291.55 9.5 286.3 15.95 280.85 22.4 275.9 28.3 270.25 34.45 263.45 40.7 265.5 40.1 278.9 36.45 279.85 36.55 298.95 30.9 Q313.95 26.45 329.2 22.55 346.9 18.05 364.3 12.45 L384.5 5.6 Q386.65 5.25 387.55 7.1 L387.75 7.5 387.45 8.7 386.35 9.8 Q369.15 16.15 351.4 21.4 L334.55 26.15 316.4 31.2 306.85 34.0 302.95 35.15 286.0 40.15 275.85 42.9 Q272.6 43.5 269.2 45.35 L266.1 46.2 260.7 47.55 259.0 48.1 Q256.35 51.75 251.25 53.15 L250.1 53.55 Q239.3 58.9 229.0 64.75 L229.35 65.45 Q230.25 67.25 231.4 68.85 L248.85 78.35 Q251.35 79.75 253.8 80.65 256.25 81.55 260.75 83.55 265.2 85.5 271.35 87.35 L281.9 90.45 Q287.55 92.15 288.65 92.1 L293.1 93.35 301.0 95.9 292.8 103.4 286.25 108.9 285.15 109.65 Q277.7 114.8 274.2 122.65 L273.35 124.6 272.95 127.3 272.9 127.5 Q271.8 135.0 274.1 141.95 L275.0 144.2 Q278.65 152.5 278.5 160.8 278.3 168.8 274.55 176.85 272.15 182.1 268.15 186.05 L271.4 195.1 Q276.9 211.15 281.6 227.15 L282.35 229.7 Q284.0 234.65 286.1 239.85 L287.85 244.7 276.25 246.8 Q272.95 239.75 272.4 238.2 L269.2 230.2 Q267.25 225.35 264.5 217.1 254.6 201.6 243.4 188.85 L245.85 213.15 253.3 220.45 253.3 251.0 244.85 251.0 207.25 109.35 205.35 108.5 201.75 107.05 193.9 104.0 184.8 100.75 Q178.85 98.75 173.7 93.5 170.3 90.1 167.1 85.15 L162.85 88.4 160.2 86.1 165.2 80.65 166.45 79.35 Q176.9 68.65 188.15 60.8 198.65 53.5 210.6 50.0 219.15 47.5 232.95 46.0 239.7 40.75 243.35 35.95 246.5 31.8 246.35 29.3 L246.3 29.15 246.35 29.15 247.05 29.35 250.2 30.05 251.25 30.05 251.25 29.95 251.3 29.95 Q256.95 30.5 257.8 34.95 L257.95 35.2 Q269.5 24.9 279.2 12.6 L286.45 3.5 290.75 -2.1 297.85 -12.6 M249.6 30.5 L249.45 30.4 249.3 30.6 249.6 30.5 M242.45 94.05 L243.0 95.65 Q244.95 99.85 245.95 104.4 L246.6 108.55 246.7 109.45 Q249.5 113.8 253.0 117.7 L253.8 116.15 Q256.3 112.0 257.45 107.35 L258.35 104.15 259.3 101.65 254.8 99.85 Q247.75 96.75 241.5 92.6 L242.45 94.05 M222.3 121.25 L220.35 118.8 Q216.45 114.8 212.1 112.0 L220.85 142.65 231.15 151.95 227.95 130.05 225.8 126.45 222.3 121.25 M260.25 134.35 L260.15 134.35 260.25 134.45 260.25 134.35 M246.15 168.4 L238.0 149.75 234.85 143.0 237.15 158.6 247.1 170.55 246.15 168.4 M237.85 182.8 L229.05 174.1 236.7 204.15 241.95 209.3 237.85 182.8 M180.4 78.3 L184.7 82.05 Q185.4 80.5 185.3 79.6 L185.3 77.4 185.5 75.25 180.4 78.3" fill="#ff0000" fill-rule="evenodd" stroke="none"/>
  </g>
</svg>
