<?xml version="1.0" encoding="UTF-8" standalone="no"?>
<svg xmlns:xlink="http://www.w3.org/1999/xlink" height="29.0px" width="266.0px" xmlns="http://www.w3.org/2000/svg">
  <g transform="matrix(1.0, 0.0, 0.0, 1.0, 134.35, 10.5)">
    <path d="M24.65 -0.5 L131.65 -0.5 M-104.35 -8.5 L-23.35 -8.5 M-106.35 -4.5 L-5.35 -4.5 M-24.35 -5.5 L-112.35 -5.5 M-33.35 14.5 L-134.35 14.5 M-132.35 0.5 L-1.35 0.5 M14.65 7.5 L80.65 7.5 M17.65 1.5 L88.65 1.5 M31.65 0.5 L121.65 0.5 M-14.35 15.5 L100.65 15.5 M-35.35 18.5 L86.65 18.5 M-65.35 13.5 L72.65 13.5 M-93.35 12.5 L100.65 12.5 M-78.35 10.5 L92.65 10.5 M-22.35 9.5 L54.65 9.5 M-64.35 11.5 L16.65 11.5 M-132.35 1.5 L13.65 1.5 M-106.35 5.5 L114.65 5.5 M-101.35 8.5 L119.65 8.5 M-86.35 6.5 L113.65 6.5 M-79.35 3.5 L96.65 3.5 M-100.35 4.5 L91.65 4.5 M-89.35 2.5 L112.65 2.5 M-71.35 7.5 L11.65 7.5 M-105.35 -6.5 L86.65 -6.5 M-58.35 -2.5 L100.65 -2.5 M-35.35 -9.5 L44.65 -9.5 M-27.35 -10.5 L65.65 -10.5 M-78.35 -1.5 L61.65 -1.5" fill="none" stroke="#000000" stroke-linecap="round" stroke-linejoin="round" stroke-width="0.05"/>
  </g>
</svg>
