<?xml version="1.0" encoding="UTF-8" standalone="no"?>
<svg xmlns:xlink="http://www.w3.org/1999/xlink" height="438.65px" width="669.65px" xmlns="http://www.w3.org/2000/svg">
  <g transform="matrix(1.0, 0.0, 0.0, 1.0, 239.45, 224.1)">
    <path d="M311.6 -99.4 L311.95 -99.25 312.1 -98.9 311.95 -98.55 Q311.8 -98.4 311.6 -98.4 311.4 -98.4 311.25 -98.55 311.1 -98.7 311.1 -98.9 L311.25 -99.25 311.6 -99.4 M322.35 -110.85 L322.7 -111.0 323.05 -110.85 323.2 -110.5 323.05 -110.15 Q322.9 -110.0 322.7 -110.0 322.5 -110.0 322.35 -110.15 322.2 -110.3 322.2 -110.5 L322.35 -110.85 M320.35 -107.95 L320.5 -107.6 320.35 -107.25 Q320.2 -107.1 320.0 -107.1 319.8 -107.1 319.65 -107.25 319.5 -107.4 319.5 -107.6 L319.65 -107.95 320.0 -108.1 320.35 -107.95 M316.85 -105.05 L317.2 -105.2 317.55 -105.05 317.7 -104.7 317.55 -104.35 317.2 -104.2 Q317.0 -104.2 316.85 -104.35 L316.7 -104.7 316.85 -105.05 M314.4 -102.3 L314.75 -102.15 314.9 -101.8 314.75 -101.45 314.4 -101.3 Q314.2 -101.3 314.05 -101.45 313.9 -101.6 313.9 -101.8 L314.05 -102.15 314.4 -102.3 M242.65 -26.75 L243.0 -26.9 243.35 -26.75 243.5 -26.4 243.35 -26.05 243.0 -25.9 Q242.8 -25.9 242.65 -26.05 242.5 -26.2 242.5 -26.4 L242.65 -26.75 M220.85 -3.55 L221.2 -3.7 221.55 -3.55 221.7 -3.2 221.55 -2.85 221.2 -2.7 Q221.0 -2.7 220.85 -2.85 L220.7 -3.2 220.85 -3.55 M218.15 -0.65 L218.5 -0.8 218.85 -0.65 219.0 -0.3 218.85 0.05 218.5 0.2 218.15 0.05 218.0 -0.3 218.15 -0.65 M240.65 -23.15 L240.3 -23.0 Q240.1 -23.0 239.95 -23.15 L239.8 -23.5 239.95 -23.85 240.3 -24.0 240.65 -23.85 240.8 -23.5 240.65 -23.15 M237.95 -20.25 L237.6 -20.1 Q237.4 -20.1 237.25 -20.25 L237.1 -20.6 237.25 -20.95 Q237.4 -21.1 237.6 -21.1 L237.95 -20.95 238.1 -20.6 237.95 -20.25 M235.15 -18.05 L235.3 -17.7 235.15 -17.35 234.8 -17.2 Q234.6 -17.2 234.45 -17.35 L234.3 -17.7 234.45 -18.05 234.8 -18.2 235.15 -18.05 M231.75 -15.15 L232.1 -15.3 232.45 -15.15 232.6 -14.8 232.45 -14.45 Q232.3 -14.3 232.1 -14.3 L231.75 -14.45 231.6 -14.8 231.75 -15.15 M229.05 -12.25 L229.4 -12.4 229.75 -12.25 229.9 -11.9 229.75 -11.55 Q229.6 -11.4 229.4 -11.4 229.2 -11.4 229.05 -11.55 L228.9 -11.9 229.05 -12.25 M227.05 -9.35 L227.2 -9.0 227.05 -8.65 Q226.9 -8.5 226.7 -8.5 226.5 -8.5 226.35 -8.65 226.2 -8.8 226.2 -9.0 L226.35 -9.35 226.7 -9.5 227.05 -9.35 M224.35 -6.45 L224.5 -6.1 224.35 -5.75 Q224.2 -5.6 224.0 -5.6 223.8 -5.6 223.65 -5.75 223.5 -5.9 223.5 -6.1 L223.65 -6.45 224.0 -6.6 224.35 -6.45 M309.4 -96.0 L309.25 -95.65 308.9 -95.5 Q308.7 -95.5 308.55 -95.65 L308.4 -96.0 308.55 -96.35 308.9 -96.5 309.25 -96.35 309.4 -96.0 M305.85 -93.45 L306.2 -93.6 306.55 -93.45 306.7 -93.1 306.55 -92.75 306.2 -92.6 Q306.0 -92.6 305.85 -92.75 L305.7 -93.1 305.85 -93.45 M304.0 -90.2 L303.85 -89.85 Q303.7 -89.7 303.5 -89.7 L303.15 -89.85 303.0 -90.2 303.15 -90.55 303.5 -90.7 303.85 -90.55 304.0 -90.2 M300.45 -87.65 L300.8 -87.8 301.15 -87.65 301.3 -87.3 301.15 -86.95 Q301.0 -86.8 300.8 -86.8 300.6 -86.8 300.45 -86.95 L300.3 -87.3 300.45 -87.65 M292.15 -78.95 L292.5 -79.1 292.85 -78.95 293.0 -78.6 292.85 -78.25 Q292.7 -78.1 292.5 -78.1 292.3 -78.1 292.15 -78.25 292.0 -78.4 292.0 -78.6 L292.15 -78.95 M290.15 -76.05 L290.3 -75.7 290.15 -75.35 289.8 -75.2 Q289.6 -75.2 289.45 -75.35 289.3 -75.5 289.3 -75.7 L289.45 -76.05 289.8 -76.2 290.15 -76.05 M297.65 -84.75 L298.0 -84.9 298.35 -84.75 298.5 -84.4 298.35 -84.05 298.0 -83.9 297.65 -84.05 297.5 -84.4 297.65 -84.75 M294.95 -81.85 L295.3 -82.0 295.65 -81.85 295.8 -81.5 295.65 -81.15 295.3 -81.0 294.95 -81.15 294.8 -81.5 294.95 -81.85 M286.65 -73.15 L287.0 -73.3 287.35 -73.15 287.5 -72.8 287.35 -72.45 Q287.2 -72.3 287.0 -72.3 286.8 -72.3 286.65 -72.45 286.5 -72.6 286.5 -72.8 L286.65 -73.15 M283.85 -70.25 L284.2 -70.4 284.55 -70.25 284.7 -69.9 284.55 -69.55 284.2 -69.4 Q284.0 -69.4 283.85 -69.55 L283.7 -69.9 283.85 -70.25 M278.2 -64.1 L278.35 -64.45 278.7 -64.6 279.05 -64.45 279.2 -64.1 279.05 -63.75 278.7 -63.6 Q278.5 -63.6 278.35 -63.75 278.2 -63.9 278.2 -64.1 M281.15 -67.35 L281.5 -67.5 281.85 -67.35 282.0 -67.0 281.85 -66.65 281.5 -66.5 Q281.3 -66.5 281.15 -66.65 L281.0 -67.0 281.15 -67.35 M272.95 -58.65 Q273.1 -58.8 273.3 -58.8 L273.65 -58.65 273.8 -58.3 273.65 -57.95 273.3 -57.8 Q273.1 -57.8 272.95 -57.95 L272.8 -58.3 272.95 -58.65 M270.5 -55.9 L270.85 -55.75 271.0 -55.4 270.85 -55.05 270.5 -54.9 Q270.3 -54.9 270.15 -55.05 L270.0 -55.4 270.15 -55.75 270.5 -55.9 M267.7 -53.0 L268.05 -52.85 268.2 -52.5 268.05 -52.15 267.7 -52.0 Q267.5 -52.0 267.35 -52.15 L267.2 -52.5 267.35 -52.85 267.7 -53.0 M264.65 -49.95 L265.0 -50.1 265.35 -49.95 265.5 -49.6 265.35 -49.25 265.0 -49.1 264.65 -49.25 264.5 -49.6 264.65 -49.95 M276.5 -61.2 L276.35 -60.85 276.0 -60.7 Q275.8 -60.7 275.65 -60.85 L275.5 -61.2 275.65 -61.55 276.0 -61.7 276.35 -61.55 276.5 -61.2 M261.95 -47.05 L262.3 -47.2 262.65 -47.05 262.8 -46.7 262.65 -46.35 262.3 -46.2 261.95 -46.35 261.8 -46.7 261.95 -47.05 M259.95 -44.15 L260.1 -43.8 259.95 -43.45 259.6 -43.3 259.25 -43.45 259.1 -43.8 259.25 -44.15 259.6 -44.3 259.95 -44.15 M256.55 -41.25 L256.9 -41.4 257.25 -41.25 257.4 -40.9 257.25 -40.55 256.9 -40.4 Q256.7 -40.4 256.55 -40.55 L256.4 -40.9 256.55 -41.25 M253.85 -38.35 L254.2 -38.5 254.55 -38.35 254.7 -38.0 254.55 -37.65 254.2 -37.5 Q254.0 -37.5 253.85 -37.65 L253.7 -38.0 253.85 -38.35 M251.05 -35.45 L251.4 -35.6 251.75 -35.45 251.9 -35.1 251.75 -34.75 251.4 -34.6 Q251.2 -34.6 251.05 -34.75 250.9 -34.9 250.9 -35.1 L251.05 -35.45 M248.95 -32.55 L249.1 -32.2 248.95 -31.85 Q248.8 -31.7 248.6 -31.7 248.4 -31.7 248.25 -31.85 248.1 -32.0 248.1 -32.2 L248.25 -32.55 248.6 -32.7 248.95 -32.55 M246.3 -29.3 L246.15 -28.95 245.8 -28.8 Q245.6 -28.8 245.45 -28.95 L245.3 -29.3 245.45 -29.65 245.8 -29.8 246.15 -29.65 246.3 -29.3 M429.35 -223.95 L429.7 -224.1 430.05 -223.95 430.2 -223.6 430.05 -223.25 429.7 -223.1 429.35 -223.25 429.2 -223.6 429.35 -223.95 M423.85 -218.15 L424.2 -218.3 424.55 -218.15 424.7 -217.8 424.55 -217.45 424.2 -217.3 Q424.0 -217.3 423.85 -217.45 423.7 -217.6 423.7 -217.8 L423.85 -218.15 M419.15 -212.35 L419.3 -212.0 419.15 -211.65 418.8 -211.5 Q418.6 -211.5 418.45 -211.65 L418.3 -212.0 418.45 -212.35 418.8 -212.5 419.15 -212.35 M421.15 -215.25 L421.5 -215.4 421.85 -215.25 422.0 -214.9 421.85 -214.55 421.5 -214.4 Q421.3 -214.4 421.15 -214.55 421.0 -214.7 421.0 -214.9 L421.15 -215.25 M412.95 -206.55 L413.3 -206.7 413.65 -206.55 413.8 -206.2 413.65 -205.85 413.3 -205.7 Q413.1 -205.7 412.95 -205.85 L412.8 -206.2 412.95 -206.55 M408.15 -200.75 L408.3 -200.4 408.15 -200.05 407.8 -199.9 407.45 -200.05 407.3 -200.4 407.45 -200.75 407.8 -200.9 408.15 -200.75 M411.0 -203.3 L410.85 -202.95 410.5 -202.8 Q410.3 -202.8 410.15 -202.95 L410.0 -203.3 410.15 -203.65 410.5 -203.8 410.85 -203.65 411.0 -203.3 M415.65 -209.45 L416.0 -209.6 416.35 -209.45 416.5 -209.1 416.35 -208.75 416.0 -208.6 Q415.8 -208.6 415.65 -208.75 L415.5 -209.1 415.65 -209.45 M426.65 -221.05 L427.0 -221.2 427.35 -221.05 427.5 -220.7 427.35 -220.35 427.0 -220.2 Q426.8 -220.2 426.65 -220.35 L426.5 -220.7 426.65 -221.05 M405.5 -197.5 L405.35 -197.15 Q405.2 -197.0 405.0 -197.0 404.8 -197.0 404.65 -197.15 404.5 -197.3 404.5 -197.5 L404.65 -197.85 405.0 -198.0 405.35 -197.85 405.5 -197.5 M402.3 -195.1 L402.65 -194.95 402.8 -194.6 402.65 -194.25 Q402.5 -194.1 402.3 -194.1 402.1 -194.1 401.95 -194.25 401.8 -194.4 401.8 -194.6 L401.95 -194.95 402.3 -195.1 M399.6 -192.2 L399.95 -192.05 400.1 -191.7 399.95 -191.35 Q399.8 -191.2 399.6 -191.2 399.4 -191.2 399.25 -191.35 399.1 -191.5 399.1 -191.7 L399.25 -192.05 399.6 -192.2 M396.45 -189.15 L396.8 -189.3 397.15 -189.15 397.3 -188.8 397.15 -188.45 Q397.0 -188.3 396.8 -188.3 396.6 -188.3 396.45 -188.45 396.3 -188.6 396.3 -188.8 L396.45 -189.15 M393.65 -186.25 L394.0 -186.4 394.35 -186.25 394.5 -185.9 394.35 -185.55 394.0 -185.4 393.65 -185.55 393.5 -185.9 393.65 -186.25 M391.65 -183.35 L391.8 -183.0 391.65 -182.65 391.3 -182.5 Q391.1 -182.5 390.95 -182.65 L390.8 -183.0 390.95 -183.35 391.3 -183.5 391.65 -183.35 M388.25 -180.45 L388.6 -180.6 388.95 -180.45 389.1 -180.1 388.95 -179.75 388.6 -179.6 Q388.4 -179.6 388.25 -179.75 L388.1 -180.1 388.25 -180.45 M385.45 -177.55 L385.8 -177.7 386.15 -177.55 386.3 -177.2 386.15 -176.85 385.8 -176.7 Q385.6 -176.7 385.45 -176.85 385.3 -177.0 385.3 -177.2 L385.45 -177.55 M382.75 -174.65 L383.1 -174.8 383.45 -174.65 383.6 -174.3 383.45 -173.95 383.1 -173.8 Q382.9 -173.8 382.75 -173.95 L382.6 -174.3 382.75 -174.65 M379.95 -171.75 L380.3 -171.9 380.65 -171.75 380.8 -171.4 380.65 -171.05 380.3 -170.9 Q380.1 -170.9 379.95 -171.05 L379.8 -171.4 379.95 -171.75 M377.25 -168.85 L377.6 -169.0 377.95 -168.85 378.1 -168.5 377.95 -168.15 377.6 -168.0 Q377.4 -168.0 377.25 -168.15 L377.1 -168.5 377.25 -168.85 M375.15 -165.95 L375.3 -165.6 375.15 -165.25 374.8 -165.1 Q374.6 -165.1 374.45 -165.25 L374.3 -165.6 374.45 -165.95 374.8 -166.1 375.15 -165.95 M371.65 -163.05 Q371.8 -163.2 372.0 -163.2 L372.35 -163.05 372.5 -162.7 372.35 -162.35 372.0 -162.2 Q371.8 -162.2 371.65 -162.35 L371.5 -162.7 371.65 -163.05 M369.8 -159.8 L369.65 -159.45 Q369.5 -159.3 369.3 -159.3 369.1 -159.3 368.95 -159.45 368.8 -159.6 368.8 -159.8 L368.95 -160.15 369.3 -160.3 369.65 -160.15 369.8 -159.8 M366.25 -157.25 L366.6 -157.4 366.95 -157.25 367.1 -156.9 366.95 -156.55 Q366.8 -156.4 366.6 -156.4 366.4 -156.4 366.25 -156.55 366.1 -156.7 366.1 -156.9 L366.25 -157.25 M358.65 -148.55 L358.8 -148.2 358.65 -147.85 358.3 -147.7 357.95 -147.85 357.8 -148.2 357.95 -148.55 358.3 -148.7 358.65 -148.55 M363.45 -154.35 L363.8 -154.5 364.15 -154.35 364.3 -154.0 364.15 -153.65 Q364.0 -153.5 363.8 -153.5 363.6 -153.5 363.45 -153.65 L363.3 -154.0 363.45 -154.35 M361.6 -151.1 L361.45 -150.75 Q361.3 -150.6 361.1 -150.6 360.9 -150.6 360.75 -150.75 360.6 -150.9 360.6 -151.1 L360.75 -151.45 361.1 -151.6 361.45 -151.45 361.6 -151.1 M355.6 -145.8 L355.95 -145.65 356.1 -145.3 355.95 -144.95 355.6 -144.8 Q355.4 -144.8 355.25 -144.95 L355.1 -145.3 355.25 -145.65 355.6 -145.8 M352.55 -142.75 L352.9 -142.9 353.25 -142.75 353.4 -142.4 353.25 -142.05 352.9 -141.9 Q352.7 -141.9 352.55 -142.05 L352.4 -142.4 352.55 -142.75 M347.4 -137.1 L347.75 -136.95 347.9 -136.6 347.75 -136.25 347.4 -136.1 Q347.2 -136.1 347.05 -136.25 L346.9 -136.6 347.05 -136.95 347.4 -137.1 M350.1 -140.0 L350.45 -139.85 350.6 -139.5 350.45 -139.15 350.1 -139.0 Q349.9 -139.0 349.75 -139.15 349.6 -139.3 349.6 -139.5 L349.75 -139.85 350.1 -140.0 M344.95 -134.05 L345.1 -133.7 344.95 -133.35 344.6 -133.2 Q344.4 -133.2 344.25 -133.35 L344.1 -133.7 344.25 -134.05 344.6 -134.2 344.95 -134.05 M341.55 -131.15 L341.9 -131.3 342.25 -131.15 342.4 -130.8 342.25 -130.45 341.9 -130.3 Q341.7 -130.3 341.55 -130.45 L341.4 -130.8 341.55 -131.15 M338.75 -128.25 L339.1 -128.4 339.45 -128.25 339.6 -127.9 339.45 -127.55 339.1 -127.4 Q338.9 -127.4 338.75 -127.55 L338.6 -127.9 338.75 -128.25 M336.4 -125.5 L336.75 -125.35 336.9 -125.0 336.75 -124.65 336.4 -124.5 336.05 -124.65 335.9 -125.0 336.05 -125.35 336.4 -125.5 M333.35 -122.45 L333.7 -122.6 334.05 -122.45 334.2 -122.1 334.05 -121.75 333.7 -121.6 333.35 -121.75 333.2 -122.1 333.35 -122.45 M331.25 -119.55 L331.4 -119.2 331.25 -118.85 Q331.1 -118.7 330.9 -118.7 330.7 -118.7 330.55 -118.85 330.4 -119.0 330.4 -119.2 L330.55 -119.55 330.9 -119.7 331.25 -119.55 M327.85 -116.65 L328.2 -116.8 328.55 -116.65 328.7 -116.3 328.55 -115.95 Q328.4 -115.8 328.2 -115.8 328.0 -115.8 327.85 -115.95 327.7 -116.1 327.7 -116.3 L327.85 -116.65 M325.15 -113.75 L325.5 -113.9 325.85 -113.75 326.0 -113.4 325.85 -113.05 325.5 -112.9 Q325.3 -112.9 325.15 -113.05 325.0 -113.2 325.0 -113.4 L325.15 -113.75 M215.45 2.25 Q215.6 2.1 215.8 2.1 L216.15 2.25 216.3 2.6 216.15 2.95 215.8 3.1 215.45 2.95 215.3 2.6 215.45 2.25 M213.5 5.5 L213.35 5.85 213.0 6.0 212.65 5.85 212.5 5.5 212.65 5.15 Q212.8 5.0 213.0 5.0 L213.35 5.15 213.5 5.5 M207.5 10.8 L207.85 10.95 208.0 11.3 207.85 11.65 207.5 11.8 207.15 11.65 207.0 11.3 207.15 10.95 Q207.3 10.8 207.5 10.8 M210.65 8.05 L210.8 8.4 210.65 8.75 210.3 8.9 Q210.1 8.9 209.95 8.75 L209.8 8.4 209.95 8.05 Q210.1 7.9 210.3 7.9 L210.65 8.05 M204.45 13.85 L204.8 13.7 Q205.0 13.7 205.15 13.85 L205.3 14.2 205.15 14.55 204.8 14.7 204.45 14.55 204.3 14.2 204.45 13.85 M201.75 16.75 Q201.9 16.6 202.1 16.6 202.3 16.6 202.45 16.75 L202.6 17.1 202.45 17.45 202.1 17.6 201.75 17.45 201.6 17.1 201.75 16.75 M193.45 24.25 L193.6 24.6 193.45 24.95 193.1 25.1 192.75 24.95 192.6 24.6 Q192.6 24.4 192.75 24.25 192.9 24.1 193.1 24.1 193.3 24.1 193.45 24.25 M196.35 22.55 Q196.5 22.4 196.7 22.4 196.9 22.4 197.05 22.55 L197.2 22.9 197.05 23.25 196.7 23.4 196.35 23.25 196.2 22.9 Q196.2 22.7 196.35 22.55 M199.05 19.65 Q199.2 19.5 199.4 19.5 199.6 19.5 199.75 19.65 L199.9 20.0 199.75 20.35 199.4 20.5 199.05 20.35 198.9 20.0 Q198.9 19.8 199.05 19.65 M181.95 29.15 Q182.1 29.0 182.3 29.0 L182.65 29.15 182.8 29.5 182.65 29.85 182.3 30.0 181.95 29.85 181.8 29.5 181.95 29.15 M178.7 30.6 L179.05 30.75 179.2 31.1 179.05 31.45 178.7 31.6 178.35 31.45 178.2 31.1 178.35 30.75 Q178.5 30.6 178.7 30.6 M175.45 32.35 L175.6 32.7 175.45 33.05 175.1 33.2 174.75 33.05 174.6 32.7 Q174.6 32.5 174.75 32.35 174.9 32.2 175.1 32.2 175.3 32.2 175.45 32.35 M171.5 33.8 Q171.7 33.8 171.85 33.95 L172.0 34.3 171.85 34.65 171.5 34.8 171.15 34.65 171.0 34.3 Q171.0 34.1 171.15 33.95 171.3 33.8 171.5 33.8 M167.55 35.65 Q167.7 35.5 167.9 35.5 168.1 35.5 168.25 35.65 L168.4 36.0 168.25 36.35 167.9 36.5 167.55 36.35 167.4 36.0 Q167.4 35.8 167.55 35.65 M163.95 37.25 Q164.1 37.1 164.3 37.1 164.5 37.1 164.65 37.25 L164.8 37.6 164.65 37.95 164.3 38.1 163.95 37.95 163.8 37.6 163.95 37.25 M189.15 25.85 Q189.3 25.7 189.5 25.7 189.7 25.7 189.85 25.85 L190.0 26.2 189.85 26.55 189.5 26.7 189.15 26.55 189.0 26.2 189.15 25.85 M185.55 27.45 L185.9 27.3 Q186.1 27.3 186.25 27.45 L186.4 27.8 186.25 28.15 185.9 28.3 185.55 28.15 185.4 27.8 185.55 27.45 M139.45 48.65 L139.6 49.0 139.45 49.35 139.1 49.5 138.75 49.35 138.6 49.0 138.75 48.65 Q138.9 48.5 139.1 48.5 139.3 48.5 139.45 48.65 M145.95 45.35 Q146.1 45.2 146.3 45.2 146.5 45.2 146.65 45.35 L146.8 45.7 146.65 46.05 146.3 46.2 145.95 46.05 145.8 45.7 Q145.8 45.5 145.95 45.35 M142.7 47.9 L142.35 47.75 142.2 47.4 Q142.2 47.2 142.35 47.05 142.5 46.9 142.7 46.9 142.9 46.9 143.05 47.05 L143.2 47.4 143.05 47.75 142.7 47.9 M149.55 43.75 Q149.7 43.6 149.9 43.6 150.1 43.6 150.25 43.75 L150.4 44.1 150.25 44.45 149.9 44.6 149.55 44.45 149.4 44.1 Q149.4 43.9 149.55 43.75 M160.35 38.85 L160.7 38.7 Q160.9 38.7 161.05 38.85 L161.2 39.2 161.05 39.55 160.7 39.7 160.35 39.55 160.2 39.2 160.35 38.85 M157.45 40.55 L157.6 40.9 157.45 41.25 157.1 41.4 156.75 41.25 156.6 40.9 156.75 40.55 Q156.9 40.4 157.1 40.4 L157.45 40.55 M153.15 42.15 Q153.3 42.0 153.5 42.0 L153.85 42.15 154.0 42.5 153.85 42.85 153.5 43.0 153.15 42.85 153.0 42.5 153.15 42.15 M114.25 60.05 L114.4 60.4 114.25 60.75 113.9 60.9 113.55 60.75 113.4 60.4 113.55 60.05 Q113.7 59.9 113.9 59.9 114.1 59.9 114.25 60.05 M120.75 56.85 Q120.9 56.7 121.1 56.7 121.3 56.7 121.45 56.85 L121.6 57.2 121.45 57.55 121.1 57.7 120.75 57.55 120.6 57.2 Q120.6 57.0 120.75 56.85 M117.85 58.45 L118.0 58.8 117.85 59.15 117.5 59.3 117.15 59.15 117.0 58.8 Q117.0 58.6 117.15 58.45 117.3 58.3 117.5 58.3 117.7 58.3 117.85 58.45 M110.3 61.5 Q110.5 61.5 110.65 61.65 L110.8 62.0 110.65 62.35 110.3 62.5 109.95 62.35 109.8 62.0 109.95 61.65 110.3 61.5 M107.05 63.3 L107.2 63.65 107.05 64.0 106.7 64.15 106.35 64.0 106.2 63.65 106.35 63.3 Q106.5 63.15 106.7 63.15 L107.05 63.3 M102.75 64.9 Q102.9 64.75 103.1 64.75 L103.45 64.9 103.6 65.25 103.45 65.6 103.1 65.75 102.75 65.6 102.6 65.25 102.75 64.9 M84.75 72.9 L85.1 72.75 Q85.3 72.75 85.45 72.9 L85.6 73.25 85.45 73.6 85.1 73.75 84.75 73.6 84.6 73.25 84.75 72.9 M88.35 71.3 Q88.5 71.15 88.7 71.15 88.9 71.15 89.05 71.3 L89.2 71.65 89.05 72.0 88.7 72.15 88.35 72.0 88.2 71.65 88.35 71.3 M99.15 66.5 Q99.3 66.35 99.5 66.35 99.7 66.35 99.85 66.5 L100.0 66.85 99.85 67.2 99.5 67.35 99.15 67.2 99.0 66.85 Q99.0 66.65 99.15 66.5 M95.55 68.1 Q95.7 67.95 95.9 67.95 96.1 67.95 96.25 68.1 L96.4 68.45 96.25 68.8 95.9 68.95 95.55 68.8 95.4 68.45 Q95.4 68.25 95.55 68.1 M91.95 69.7 Q92.1 69.55 92.3 69.55 92.5 69.55 92.65 69.7 L92.8 70.05 92.65 70.4 92.3 70.55 91.95 70.4 91.8 70.05 Q91.8 69.85 91.95 69.7 M81.85 74.5 L82.0 74.85 81.85 75.2 81.5 75.35 81.15 75.2 81.0 74.85 81.15 74.5 Q81.3 74.35 81.5 74.35 L81.85 74.5 M135.15 50.35 L135.5 50.2 Q135.7 50.2 135.85 50.35 L136.0 50.7 135.85 51.05 135.5 51.2 135.15 51.05 135.0 50.7 135.15 50.35 M132.4 52.3 L132.25 52.65 131.9 52.8 131.55 52.65 131.4 52.3 131.55 51.95 Q131.7 51.8 131.9 51.8 L132.25 51.95 132.4 52.3 M128.65 53.55 L128.8 53.9 128.65 54.25 128.3 54.4 127.95 54.25 127.8 53.9 127.95 53.55 Q128.1 53.4 128.3 53.4 L128.65 53.55 M125.05 55.15 L125.2 55.5 125.05 55.85 124.7 56.0 124.35 55.85 124.2 55.5 Q124.2 55.3 124.35 55.15 124.5 55.0 124.7 55.0 124.9 55.0 125.05 55.15 M27.05 98.5 Q27.2 98.35 27.4 98.35 L27.75 98.5 27.9 98.85 27.75 99.2 27.4 99.35 27.05 99.2 26.9 98.85 27.05 98.5 M34.35 95.3 L34.7 95.15 Q34.9 95.15 35.05 95.3 L35.2 95.65 35.05 96.0 34.7 96.15 34.35 96.0 34.2 95.65 34.35 95.3 M30.75 96.9 Q30.9 96.75 31.1 96.75 L31.45 96.9 31.6 97.25 31.45 97.6 31.1 97.75 30.75 97.6 30.6 97.25 30.75 96.9 M37.95 93.7 Q38.1 93.55 38.3 93.55 38.5 93.55 38.65 93.7 L38.8 94.05 38.65 94.4 38.3 94.55 37.95 94.4 37.8 94.05 37.95 93.7 M55.95 85.7 Q56.1 85.55 56.3 85.55 L56.65 85.7 56.8 86.05 56.65 86.4 56.3 86.55 55.95 86.4 55.8 86.05 55.95 85.7 M59.55 84.1 L59.9 83.95 Q60.1 83.95 60.25 84.1 L60.4 84.45 60.25 84.8 59.9 84.95 59.55 84.8 59.4 84.45 59.55 84.1 M48.75 88.9 Q48.9 88.75 49.1 88.75 49.3 88.75 49.45 88.9 L49.6 89.25 49.45 89.6 49.1 89.75 48.75 89.6 48.6 89.25 Q48.6 89.05 48.75 88.9 M45.85 91.2 L45.5 91.35 45.15 91.2 45.0 90.85 Q45.0 90.65 45.15 90.5 45.3 90.35 45.5 90.35 45.7 90.35 45.85 90.5 L46.0 90.85 45.85 91.2 M41.55 92.1 Q41.7 91.95 41.9 91.95 42.1 91.95 42.25 92.1 L42.4 92.45 42.25 92.8 41.9 92.95 41.55 92.8 41.4 92.45 Q41.4 92.25 41.55 92.1 M52.35 87.3 Q52.5 87.15 52.7 87.15 L53.05 87.3 53.2 87.65 53.05 88.0 52.7 88.15 52.35 88.0 52.2 87.65 52.35 87.3 M77.55 76.1 Q77.7 75.95 77.9 75.95 L78.25 76.1 78.4 76.45 78.25 76.8 77.9 76.95 77.55 76.8 77.4 76.45 77.55 76.1 M71.2 79.65 L71.05 80.0 70.7 80.15 70.35 80.0 70.2 79.65 Q70.2 79.45 70.35 79.3 70.5 79.15 70.7 79.15 70.9 79.15 71.05 79.3 L71.2 79.65 M73.95 77.7 Q74.1 77.55 74.3 77.55 74.5 77.55 74.65 77.7 L74.8 78.05 74.65 78.4 74.3 78.55 73.95 78.4 73.8 78.05 Q73.8 77.85 73.95 77.7 M63.15 82.5 Q63.3 82.35 63.5 82.35 63.7 82.35 63.85 82.5 L64.0 82.85 63.85 83.2 63.5 83.35 63.15 83.2 63.0 82.85 63.15 82.5 M66.75 80.9 Q66.9 80.75 67.1 80.75 67.3 80.75 67.45 80.9 L67.6 81.25 67.45 81.6 67.1 81.75 66.75 81.6 66.6 81.25 Q66.6 81.05 66.75 80.9 M23.35 100.1 Q23.5 99.95 23.7 99.95 23.9 99.95 24.05 100.1 L24.2 100.45 24.05 100.8 23.7 100.95 23.35 100.8 23.2 100.45 Q23.2 100.25 23.35 100.1 M20.5 102.05 L20.35 102.4 20.0 102.55 19.65 102.4 19.5 102.05 19.65 101.7 20.0 101.55 Q20.2 101.55 20.35 101.7 L20.5 102.05 M16.65 103.3 L16.8 103.65 16.65 104.0 16.3 104.15 15.95 104.0 15.8 103.65 15.95 103.3 Q16.1 103.15 16.3 103.15 L16.65 103.3 M12.95 104.9 L13.1 105.25 12.95 105.6 12.6 105.75 12.25 105.6 12.1 105.25 Q12.1 105.05 12.25 104.9 12.4 104.75 12.6 104.75 L12.95 104.9 M1.2 109.7 Q1.35 109.55 1.55 109.55 1.75 109.55 1.9 109.7 L2.05 110.05 1.9 110.4 1.55 110.55 1.2 110.4 1.05 110.05 1.2 109.7 M4.75 108.45 Q4.75 108.25 4.9 108.1 5.05 107.95 5.25 107.95 L5.6 108.1 5.75 108.45 5.6 108.8 5.25 108.95 4.9 108.8 4.75 108.45 M8.6 106.5 Q8.75 106.35 8.95 106.35 L9.3 106.5 9.45 106.85 9.3 107.2 8.95 107.35 8.6 107.2 8.45 106.85 8.6 106.5 M-86.9 148.1 L-86.75 148.45 -86.9 148.8 -87.25 148.95 -87.6 148.8 -87.75 148.45 -87.6 148.1 -87.25 147.95 Q-87.05 147.95 -86.9 148.1 M-83.9 146.5 Q-83.75 146.35 -83.55 146.35 -83.35 146.35 -83.2 146.5 -83.05 146.65 -83.05 146.85 L-83.2 147.2 -83.55 147.35 -83.9 147.2 -84.05 146.85 -83.9 146.5 M-139.4 170.5 L-139.05 170.35 Q-138.85 170.35 -138.7 170.5 -138.55 170.65 -138.55 170.85 L-138.7 171.2 -139.05 171.35 -139.4 171.2 -139.55 170.85 -139.4 170.5 M-132.0 167.3 L-131.65 167.15 -131.3 167.3 -131.15 167.65 -131.3 168.0 -131.65 168.15 -132.0 168.0 -132.15 167.65 -132.0 167.3 M-135.0 168.9 Q-134.85 169.05 -134.85 169.25 L-135.0 169.6 -135.35 169.75 -135.7 169.6 -135.85 169.25 -135.7 168.9 Q-135.55 168.75 -135.35 168.75 -135.15 168.75 -135.0 168.9 M-124.6 164.1 Q-124.45 163.95 -124.25 163.95 -124.05 163.95 -123.9 164.1 -123.75 164.25 -123.75 164.45 L-123.9 164.8 -124.25 164.95 -124.6 164.8 -124.75 164.45 -124.6 164.1 M-128.3 165.7 L-127.95 165.55 Q-127.75 165.55 -127.6 165.7 L-127.45 166.05 -127.6 166.4 -127.95 166.55 -128.3 166.4 -128.45 166.05 -128.3 165.7 M-143.1 172.1 L-142.75 171.95 Q-142.55 171.95 -142.4 172.1 L-142.25 172.45 -142.4 172.8 -142.75 172.95 -143.1 172.8 -143.25 172.45 -143.1 172.1 M-145.95 174.05 L-146.1 174.4 -146.45 174.55 -146.8 174.4 -146.95 174.05 -146.8 173.7 Q-146.65 173.55 -146.45 173.55 -146.25 173.55 -146.1 173.7 L-145.95 174.05 M-149.8 175.3 Q-149.65 175.45 -149.65 175.65 L-149.8 176.0 -150.15 176.15 -150.5 176.0 -150.65 175.65 -150.5 175.3 -150.15 175.15 Q-149.95 175.15 -149.8 175.3 M-154.2 176.9 L-153.85 176.75 Q-153.65 176.75 -153.5 176.9 L-153.35 177.25 -153.5 177.6 -153.85 177.75 -154.2 177.6 -154.35 177.25 -154.2 176.9 M-157.9 178.5 Q-157.75 178.35 -157.55 178.35 L-157.2 178.5 -157.05 178.85 -157.2 179.2 -157.55 179.35 -157.9 179.2 -158.05 178.85 -157.9 178.5 M-160.9 180.1 Q-160.75 180.25 -160.75 180.45 L-160.9 180.8 -161.25 180.95 -161.6 180.8 -161.75 180.45 -161.6 180.1 Q-161.45 179.95 -161.25 179.95 -161.05 179.95 -160.9 180.1 M-90.45 150.05 L-90.6 150.4 -90.95 150.55 -91.3 150.4 -91.45 150.05 -91.3 149.7 -90.95 149.55 Q-90.75 149.55 -90.6 149.7 L-90.45 150.05 M-94.3 151.3 Q-94.15 151.45 -94.15 151.65 L-94.3 152.0 -94.65 152.15 -95.0 152.0 -95.15 151.65 -95.0 151.3 Q-94.85 151.15 -94.65 151.15 -94.45 151.15 -94.3 151.3 M-98.7 152.9 L-98.35 152.75 Q-98.15 152.75 -98.0 152.9 L-97.85 153.25 -98.0 153.6 -98.35 153.75 -98.7 153.6 -98.85 153.25 -98.7 152.9 M-102.05 154.35 Q-101.85 154.35 -101.7 154.5 L-101.55 154.85 -101.7 155.2 -102.05 155.35 -102.4 155.2 -102.55 154.85 -102.4 154.5 -102.05 154.35 M-109.1 157.7 L-108.95 158.05 -109.1 158.4 -109.45 158.55 -109.8 158.4 -109.95 158.05 -109.8 157.7 -109.45 157.55 -109.1 157.7 M-105.4 156.1 Q-105.25 156.25 -105.25 156.45 L-105.4 156.8 -105.75 156.95 -106.1 156.8 -106.25 156.45 -106.1 156.1 Q-105.95 155.95 -105.75 155.95 -105.55 155.95 -105.4 156.1 M-113.5 159.3 Q-113.35 159.15 -113.15 159.15 -112.95 159.15 -112.8 159.3 -112.65 159.45 -112.65 159.65 L-112.8 160.0 -113.15 160.15 -113.5 160.0 -113.65 159.65 -113.5 159.3 M-117.2 160.9 L-116.85 160.75 Q-116.65 160.75 -116.5 160.9 L-116.35 161.25 -116.5 161.6 Q-116.65 161.75 -116.85 161.75 L-117.2 161.6 -117.35 161.25 -117.2 160.9 M-120.9 162.5 L-120.55 162.35 -120.2 162.5 -120.05 162.85 -120.2 163.2 -120.55 163.35 -120.9 163.2 -121.05 162.85 -120.9 162.5 M-2.15 111.15 L-1.8 111.3 -1.65 111.65 -1.8 112.0 -2.15 112.15 -2.5 112.0 -2.65 111.65 -2.5 111.3 Q-2.35 111.15 -2.15 111.15 M-13.6 116.1 L-13.25 115.95 Q-13.05 115.95 -12.9 116.1 L-12.75 116.45 -12.9 116.8 -13.25 116.95 -13.6 116.8 -13.75 116.45 -13.6 116.1 M-17.3 117.7 Q-17.15 117.55 -16.95 117.55 -16.75 117.55 -16.6 117.7 -16.45 117.85 -16.45 118.05 L-16.6 118.4 -16.95 118.55 -17.3 118.4 -17.45 118.05 -17.3 117.7 M-6.2 112.9 Q-6.05 112.75 -5.85 112.75 -5.65 112.75 -5.5 112.9 -5.35 113.05 -5.35 113.25 L-5.5 113.6 -5.85 113.75 -6.2 113.6 -6.35 113.25 -6.2 112.9 M-9.9 114.5 L-9.55 114.35 Q-9.35 114.35 -9.2 114.5 L-9.05 114.85 -9.2 115.2 -9.55 115.35 -9.9 115.2 -10.05 114.85 -9.9 114.5 M-28.4 122.5 Q-28.25 122.35 -28.05 122.35 -27.85 122.35 -27.7 122.5 -27.55 122.65 -27.55 122.85 L-27.7 123.2 -28.05 123.35 -28.4 123.2 -28.55 122.85 -28.4 122.5 M-21.0 119.3 L-20.65 119.15 Q-20.45 119.15 -20.3 119.3 L-20.15 119.65 -20.3 120.0 -20.65 120.15 -21.0 120.0 -21.15 119.65 -21.0 119.3 M-24.0 120.9 L-23.85 121.25 -24.0 121.6 -24.35 121.75 -24.7 121.6 -24.85 121.25 -24.7 120.9 -24.35 120.75 Q-24.15 120.75 -24.0 120.9 M-32.1 124.1 L-31.75 123.95 -31.4 124.1 -31.25 124.45 -31.4 124.8 -31.75 124.95 -32.1 124.8 -32.25 124.45 -32.1 124.1 M-35.1 126.4 L-35.45 126.55 -35.8 126.4 -35.95 126.05 -35.8 125.7 Q-35.65 125.55 -35.45 125.55 -35.25 125.55 -35.1 125.7 -34.95 125.85 -34.95 126.05 L-35.1 126.4 M-39.5 127.3 L-39.15 127.15 Q-38.95 127.15 -38.8 127.3 L-38.65 127.65 -38.8 128.0 Q-38.95 128.15 -39.15 128.15 L-39.5 128.0 -39.65 127.65 -39.5 127.3 M-72.8 141.7 L-72.45 141.55 Q-72.25 141.55 -72.1 141.7 -71.95 141.85 -71.95 142.05 L-72.1 142.4 -72.45 142.55 -72.8 142.4 -72.95 142.05 -72.8 141.7 M-76.5 143.3 L-76.15 143.15 Q-75.95 143.15 -75.8 143.3 L-75.65 143.65 -75.8 144.0 -76.15 144.15 -76.5 144.0 -76.65 143.65 -76.5 143.3 M-80.2 144.9 Q-80.05 144.75 -79.85 144.75 L-79.5 144.9 -79.35 145.25 -79.5 145.6 -79.85 145.75 -80.2 145.6 -80.35 145.25 -80.2 144.9 M-61.7 136.9 L-61.35 136.75 Q-61.15 136.75 -61.0 136.9 -60.85 137.05 -60.85 137.25 L-61.0 137.6 -61.35 137.75 -61.7 137.6 -61.85 137.25 -61.7 136.9 M-64.7 138.5 L-64.55 138.85 -64.7 139.2 -65.05 139.35 -65.4 139.2 -65.55 138.85 -65.4 138.5 -65.05 138.35 Q-64.85 138.35 -64.7 138.5 M-68.4 140.1 L-68.25 140.45 -68.4 140.8 -68.75 140.95 -69.1 140.8 -69.25 140.45 -69.1 140.1 Q-68.95 139.95 -68.75 139.95 -68.55 139.95 -68.4 140.1 M-43.2 128.9 L-42.85 128.75 -42.5 128.9 -42.35 129.25 -42.5 129.6 -42.85 129.75 -43.2 129.6 -43.35 129.25 -43.2 128.9 M-46.9 130.5 Q-46.75 130.35 -46.55 130.35 -46.35 130.35 -46.2 130.5 -46.05 130.65 -46.05 130.85 L-46.2 131.2 -46.55 131.35 -46.9 131.2 -47.05 130.85 -46.9 130.5 M-49.75 132.45 L-49.9 132.8 -50.25 132.95 -50.6 132.8 -50.75 132.45 -50.6 132.1 -50.25 131.95 Q-50.05 131.95 -49.9 132.1 L-49.75 132.45 M-58.0 135.3 Q-57.85 135.15 -57.65 135.15 -57.45 135.15 -57.3 135.3 -57.15 135.45 -57.15 135.65 L-57.3 136.0 -57.65 136.15 -58.0 136.0 -58.15 135.65 -58.0 135.3 M-54.3 133.7 L-53.95 133.55 -53.6 133.7 -53.45 134.05 -53.6 134.4 -53.95 134.55 -54.3 134.4 -54.45 134.05 -54.3 133.7 M-201.95 197.55 Q-201.75 197.55 -201.6 197.7 -201.45 197.85 -201.45 198.05 L-201.6 198.4 -201.95 198.55 -202.3 198.4 -202.45 198.05 -202.3 197.7 Q-202.15 197.55 -201.95 197.55 M-198.6 196.1 L-198.25 195.95 -197.9 196.1 -197.75 196.45 -197.9 196.8 -198.25 196.95 -198.6 196.8 -198.75 196.45 -198.6 196.1 M-194.9 194.5 L-194.55 194.35 Q-194.35 194.35 -194.2 194.5 L-194.05 194.85 -194.2 195.2 Q-194.35 195.35 -194.55 195.35 L-194.9 195.2 -195.05 194.85 -194.9 194.5 M-186.8 191.3 L-186.65 191.65 -186.8 192.0 -187.15 192.15 -187.5 192.0 -187.65 191.65 -187.5 191.3 -187.15 191.15 -186.8 191.3 M-183.8 189.7 Q-183.65 189.55 -183.45 189.55 -183.25 189.55 -183.1 189.7 -182.95 189.85 -182.95 190.05 L-183.1 190.4 -183.45 190.55 -183.8 190.4 -183.95 190.05 -183.8 189.7 M-190.5 192.9 Q-190.35 193.05 -190.35 193.25 L-190.5 193.6 -190.85 193.75 -191.2 193.6 -191.35 193.25 -191.2 192.9 Q-191.05 192.75 -190.85 192.75 -190.65 192.75 -190.5 192.9 M-171.85 185.25 L-172.0 185.6 -172.35 185.75 -172.7 185.6 -172.85 185.25 -172.7 184.9 Q-172.55 184.75 -172.35 184.75 -172.15 184.75 -172.0 184.9 -171.85 185.05 -171.85 185.25 M-169.0 183.3 L-168.65 183.15 Q-168.45 183.15 -168.3 183.3 L-168.15 183.65 -168.3 184.0 -168.65 184.15 -169.0 184.0 -169.15 183.65 -169.0 183.3 M-165.3 181.7 L-164.95 181.55 Q-164.75 181.55 -164.6 181.7 L-164.45 182.05 -164.6 182.4 -164.95 182.55 -165.3 182.4 -165.45 182.05 -165.3 181.7 M-176.4 186.5 L-176.05 186.35 Q-175.85 186.35 -175.7 186.5 L-175.55 186.85 -175.7 187.2 -176.05 187.35 -176.4 187.2 -176.55 186.85 -176.4 186.5 M-180.1 188.1 L-179.75 187.95 Q-179.55 187.95 -179.4 188.1 L-179.25 188.45 -179.4 188.8 -179.75 188.95 -180.1 188.8 -180.25 188.45 -180.1 188.1 M-206.0 199.3 L-205.65 199.15 Q-205.45 199.15 -205.3 199.3 L-205.15 199.65 -205.3 200.0 -205.65 200.15 -206.0 200.0 -206.15 199.65 -206.0 199.3 M-209.0 200.9 L-208.85 201.25 -209.0 201.6 -209.35 201.75 -209.7 201.6 -209.85 201.25 -209.7 200.9 -209.35 200.75 -209.0 200.9 M-213.4 202.5 Q-213.25 202.35 -213.05 202.35 -212.85 202.35 -212.7 202.5 -212.55 202.65 -212.55 202.85 L-212.7 203.2 -213.05 203.35 -213.4 203.2 -213.55 202.85 -213.4 202.5 M-216.75 203.95 Q-216.55 203.95 -216.4 204.1 -216.25 204.25 -216.25 204.45 L-216.4 204.8 -216.75 204.95 -217.1 204.8 -217.25 204.45 -217.1 204.1 -216.75 203.95 M-220.8 205.7 L-220.45 205.55 Q-220.25 205.55 -220.1 205.7 L-219.95 206.05 -220.1 206.4 -220.45 206.55 -220.8 206.4 -220.95 206.05 -220.8 205.7 M-227.85 208.75 Q-227.65 208.75 -227.5 208.9 -227.35 209.05 -227.35 209.25 L-227.5 209.6 -227.85 209.75 -228.2 209.6 -228.35 209.25 -228.2 208.9 -227.85 208.75 M-224.5 207.3 Q-224.35 207.15 -224.15 207.15 -223.95 207.15 -223.8 207.3 L-223.65 207.65 -223.8 208.0 -224.15 208.15 -224.5 208.0 -224.65 207.65 -224.5 207.3 M-235.6 212.1 Q-235.45 211.95 -235.25 211.95 L-234.9 212.1 -234.75 212.45 -234.9 212.8 -235.25 212.95 -235.6 212.8 -235.75 212.45 -235.6 212.1 M-238.6 213.7 Q-238.45 213.85 -238.45 214.05 L-238.6 214.4 -238.95 214.55 -239.3 214.4 -239.45 214.05 -239.3 213.7 Q-239.15 213.55 -238.95 213.55 -238.75 213.55 -238.6 213.7 M-231.9 210.5 L-231.55 210.35 Q-231.35 210.35 -231.2 210.5 L-231.05 210.85 -231.2 211.2 -231.55 211.35 -231.9 211.2 -232.05 210.85 -231.9 210.5" fill="#666666" fill-rule="evenodd" stroke="none"/>
  </g>
</svg>
