<?xml version="1.0" encoding="UTF-8" standalone="no"?>
<svg xmlns:xlink="http://www.w3.org/1999/xlink" height="291.95px" width="712.95px" xmlns="http://www.w3.org/2000/svg">
  <g transform="matrix(1.0, 0.0, 0.0, 1.0, 328.95, 101.0)">
    <path d="M-327.95 79.0 L-327.95 90.0 379.0 90.0 379.0 79.0 -327.95 79.0 M-327.95 -101.0 L-327.95 -95.0 379.0 -95.0 379.0 -101.0 -327.95 -101.0 M-328.95 -0.05 L-328.95 5.95 378.0 5.95 378.0 -0.05 -328.95 -0.05 M-328.95 179.95 L-328.95 190.95 378.0 190.95 378.0 179.95 -328.95 179.95" fill="#ff0000" fill-rule="evenodd" stroke="none">
      <animate attributeName="fill" dur="2s" repeatCount="indefinite" values="#ff0000;#ff0001"/>
      <animate attributeName="fill-opacity" dur="2s" repeatCount="indefinite" values="1.0;1.0"/>
      <animate attributeName="d" dur="2s" repeatCount="indefinite" values="M-327.95 79.0 L-327.95 90.0 379.0 90.0 379.0 79.0 -327.95 79.0 M-327.95 -101.0 L-327.95 -95.0 379.0 -95.0 379.0 -101.0 -327.95 -101.0 M-328.95 -0.05 L-328.95 5.95 378.0 5.95 378.0 -0.05 -328.95 -0.05 M-328.95 179.95 L-328.95 190.95 378.0 190.95 378.0 179.95 -328.95 179.95;M-322.95 122.95 L-322.95 139.95 384.0 139.95 384.0 122.95 -322.95 122.95 M-322.95 122.95 L-322.95 139.95 384.0 139.95 384.0 122.95 -322.95 122.95 M-322.95 122.95 L-322.95 139.95 384.0 139.95 384.0 122.95 -322.95 122.95 M-327.95 64.0 L-327.95 81.0 379.0 81.0 379.0 64.0 -327.95 64.0"/>
    </path>
    <path d="M-328.95 179.95 L378.0 179.95 378.0 190.95 -328.95 190.95 -328.95 179.95 M-328.95 -0.05 L378.0 -0.05 378.0 5.95 -328.95 5.95 -328.95 -0.05 M-327.95 -101.0 L379.0 -101.0 379.0 -95.0 -327.95 -95.0 -327.95 -101.0 M-327.95 79.0 L379.0 79.0 379.0 90.0 -327.95 90.0 -327.95 79.0" fill="none" stroke="#000000" stroke-linecap="round" stroke-linejoin="round" stroke-opacity="0.0" stroke-width="1.0">
      <animate attributeName="stroke" dur="2s" repeatCount="indefinite" values="#000000;#000001"/>
      <animate attributeName="stroke-width" dur="2s" repeatCount="indefinite" values="0.0;0.0"/>
      <animate attributeName="fill-opacity" dur="2s" repeatCount="indefinite" values="0.0;0.0"/>
      <animate attributeName="d" dur="2s" repeatCount="indefinite" values="M-328.95 179.95 L378.0 179.95 378.0 190.95 -328.95 190.95 -328.95 179.95 M-328.95 -0.05 L378.0 -0.05 378.0 5.95 -328.95 5.95 -328.95 -0.05 M-327.95 -101.0 L379.0 -101.0 379.0 -95.0 -327.95 -95.0 -327.95 -101.0 M-327.95 79.0 L379.0 79.0 379.0 90.0 -327.95 90.0 -327.95 79.0;M-327.95 64.0 L379.0 64.0 379.0 81.0 -327.95 81.0 -327.95 64.0 M-322.95 122.95 L384.0 122.95 384.0 139.95 -322.95 139.95 -322.95 122.95 M-322.95 122.95 L384.0 122.95 384.0 139.95 -322.95 139.95 -322.95 122.95 M-322.95 122.95 L384.0 122.95 384.0 139.95 -322.95 139.95 -322.95 122.95"/>
    </path>
  </g>
</svg>
