<?xml version="1.0" encoding="UTF-8" standalone="no"?>
<svg xmlns:xlink="http://www.w3.org/1999/xlink" height="158.75px" width="717.9px" xmlns="http://www.w3.org/2000/svg">
  <g transform="matrix(1.0, 0.0, 0.0, 1.0, 333.9, 18.8)">
    <path d="M-322.95 122.95 L-322.95 139.95 384.0 139.95 384.0 122.95 -322.95 122.95 -322.95 139.95 384.0 139.95 384.0 122.95 -322.95 122.95 -322.95 139.95 384.0 139.95 384.0 122.95 -322.95 122.95 M-327.95 64.0 L-327.95 81.0 379.0 81.0 379.0 64.0 -327.95 64.0" fill="#ff0000" fill-rule="evenodd" stroke="none">
      <animate attributeName="fill" dur="2s" repeatCount="indefinite" values="#ff0000;#ff0001"/>
      <animate attributeName="fill-opacity" dur="2s" repeatCount="indefinite" values="1.0;1.0"/>
      <animate attributeName="d" dur="2s" repeatCount="indefinite" values="M-322.95 122.95 L-322.95 139.95 384.0 139.95 384.0 122.95 -322.95 122.95 -322.95 139.95 384.0 139.95 384.0 122.95 -322.95 122.95 -322.95 139.95 384.0 139.95 384.0 122.95 -322.95 122.95 M-327.95 64.0 L-327.95 81.0 379.0 81.0 379.0 64.0 -327.95 64.0;M-327.95 -18.8 L-327.95 -10.0 379.0 -10.0 379.0 -18.8 -327.95 -18.8 -327.95 30.2 379.0 30.2 379.0 24.0 -327.95 24.0 -333.9 88.0 373.05 88.0 373.05 79.2 -333.9 79.2 M-333.9 122.0 L-333.9 128.2 373.05 128.2 373.05 122.0 -333.9 122.0"/>
    </path>
    <path d="M-327.95 64.0 L379.0 64.0 379.0 81.0 -327.95 81.0 -327.95 64.0 M-322.95 122.95 L384.0 122.95 384.0 139.95 -322.95 139.95 -322.95 122.95 384.0 122.95 384.0 139.95 -322.95 139.95 -322.95 122.95 384.0 122.95 384.0 139.95 -322.95 139.95 -322.95 122.95" fill="none" stroke="#000000" stroke-linecap="round" stroke-linejoin="round" stroke-opacity="0.0" stroke-width="1.0">
      <animate attributeName="stroke" dur="2s" repeatCount="indefinite" values="#000000;#000001"/>
      <animate attributeName="stroke-width" dur="2s" repeatCount="indefinite" values="0.0;0.0"/>
      <animate attributeName="fill-opacity" dur="2s" repeatCount="indefinite" values="0.0;0.0"/>
      <animate attributeName="d" dur="2s" repeatCount="indefinite" values="M-327.95 64.0 L379.0 64.0 379.0 81.0 -327.95 81.0 -327.95 64.0 M-322.95 122.95 L384.0 122.95 384.0 139.95 -322.95 139.95 -322.95 122.95 384.0 122.95 384.0 139.95 -322.95 139.95 -322.95 122.95 384.0 122.95 384.0 139.95 -322.95 139.95 -322.95 122.95;M-333.9 122.0 L373.05 122.0 373.05 128.2 -333.9 128.2 -333.9 122.0 M-333.9 79.2 L373.05 79.2 373.05 88.0 -333.9 88.0 -333.9 79.2 379.0 24.0 379.0 30.2 -327.95 30.2 -327.95 24.0 379.0 -18.8 379.0 -10.0 -327.95 -10.0 -327.95 -18.8"/>
    </path>
  </g>
</svg>
