<?xml version="1.0" encoding="UTF-8" standalone="no"?>
<svg xmlns:xlink="http://www.w3.org/1999/xlink" height="374.0px" width="221.4px" xmlns="http://www.w3.org/2000/svg">
  <g transform="matrix(1.0, 0.0, 0.0, 1.0, 112.95, 172.05)">
    <path d="M17.55 -169.05 L39.55 -169.05 M67.9 94.95 L94.65 94.95 M72.0 182.95 L92.6 182.95 M70.4 102.95 L97.45 102.95 M78.55 142.95 L101.85 142.95 M74.85 150.95 L102.55 150.95 M72.8 158.95 L104.15 158.95 M72.7 166.95 L102.7 166.95 M71.4 174.95 L97.55 174.95 M76.95 118.95 L100.6 118.95 M73.7 110.95 L98.6 110.95 M80.15 126.95 L102.95 126.95 M79.6 134.95 L104.35 134.95 M-95.45 -9.05 L105.45 -9.05 M-98.4 -1.05 L104.95 -1.05 M-0.35 -161.05 L45.25 -161.05 M-29.35 -97.05 L55.1 -97.05 M-64.45 -65.05 L73.4 -65.05 M-73.7 -57.05 L83.05 -57.05 M-53.45 -73.05 L59.9 -73.05 M-78.35 -49.05 L90.55 -49.05 M-82.55 -41.05 L96.35 -41.05 M-86.7 -33.05 L100.45 -33.05 M-89.15 -25.05 L103.2 -25.05 M-92.05 -17.05 L104.85 -17.05 M-30.25 -89.05 L51.15 -89.05 M-39.7 -81.05 L48.35 -81.05 M-20.6 -129.05 L56.55 -129.05 M-23.3 -121.05 L55.1 -121.05 M-16.15 -145.05 L53.9 -145.05 M-19.0 -137.05 L56.2 -137.05 M-25.65 -113.05 L52.8 -113.05 M-27.7 -105.05 L58.2 -105.05 M-10.35 -153.05 L49.6 -153.05 M-108.25 86.95 L93.9 86.95 M-97.85 190.95 L70.95 190.95 M-102.55 182.95 L71.45 182.95 M-62.0 198.95 L68.55 198.95 M-106.45 102.95 L65.95 102.95 M-107.35 94.95 L65.9 94.95 M-104.7 118.95 L68.75 118.95 M-102.95 134.95 L66.2 134.95 M-103.8 126.95 L68.95 126.95 M-105.55 110.95 L66.0 110.95 M-102.15 142.95 L66.85 142.95 M-101.9 150.95 L66.6 150.95 M-102.4 158.95 L68.55 158.95 M-103.55 166.95 L69.9 166.95 M-104.3 174.95 L70.75 174.95 M-105.25 22.95 L93.4 22.95 M-107.0 30.95 L90.9 30.95 M-108.3 38.95 L88.8 38.95 M-109.25 46.95 L87.15 46.95 M-109.15 78.95 L91.3 78.95 M-109.75 70.95 L91.1 70.95 M-109.95 62.95 L89.2 62.95 M-109.8 54.95 L87.65 54.95 M-103.15 14.95 L102.9 14.95 M-100.85 6.95 L104.55 6.95" fill="none" stroke="#ffffff" stroke-linecap="round" stroke-linejoin="round" stroke-width="6.0"/>
  </g>
</svg>
