<?xml version="1.0" encoding="UTF-8" standalone="no"?>
<svg xmlns:xlink="http://www.w3.org/1999/xlink" height="490.0px" width="794.05px" xmlns="http://www.w3.org/2000/svg">
  <g transform="matrix(1.0, 0.0, 0.0, 1.0, -7.0, -1.0)">
    <path d="M789.0 41.0 L799.0 41.0 M791.05 490.95 L801.05 490.95 M576.0 42.0 L586.0 42.0 M240.0 43.0 L250.0 43.0" fill="none" stroke="#000000" stroke-linecap="round" stroke-linejoin="round" stroke-width="0.05"/>
    <path d="M10.0 1.0 L10.0 11.0 M13.0 1.0 L13.0 11.0 M21.0 1.0 L21.0 11.0 M29.0 1.0 L29.0 11.0 M29.0 430.0 L29.0 450.0" fill="none" stroke="#cccccc" stroke-linecap="round" stroke-linejoin="round" stroke-width="0.05"/>
    <path d="M243.0 23.0 L240.0 23.0 240.0 20.0 243.0 20.0 243.0 23.0" fill="url(#gradient0)" fill-rule="evenodd" stroke="none"/>
    <path d="M578.0 22.0 L575.0 22.0 575.0 19.0 578.0 19.0 578.0 22.0" fill="url(#gradient1)" fill-rule="evenodd" stroke="none"/>
    <path d="M793.0 23.0 L790.0 23.0 790.0 20.0 793.0 20.0 793.0 23.0" fill="url(#gradient2)" fill-rule="evenodd" stroke="none"/>
    <path d="M793.0 31.0 L790.0 31.0 790.0 28.0 793.0 28.0 793.0 31.0" fill="url(#gradient3)" fill-rule="evenodd" stroke="none"/>
    <path d="M793.0 39.0 L790.0 39.0 790.0 36.0 793.0 36.0 793.0 39.0" fill="url(#gradient4)" fill-rule="evenodd" stroke="none"/>
    <path d="M793.0 47.0 L790.0 47.0 790.0 44.0 793.0 44.0 793.0 47.0" fill="url(#gradient5)" fill-rule="evenodd" stroke="none"/>
    <path d="M793.0 71.0 L790.0 71.0 790.0 68.0 793.0 68.0 793.0 71.0" fill="url(#gradient6)" fill-rule="evenodd" stroke="none"/>
    <path d="M788.0 486.0 L788.0 491.0 783.0 491.0" fill="none" stroke="#000000" stroke-linecap="round" stroke-linejoin="round" stroke-width="0.05"/>
    <path d="M30.05 491.0 L25.05 491.0 25.05 486.0" fill="none" stroke="#000000" stroke-linecap="round" stroke-linejoin="round" stroke-width="0.05"/>
    <path d="M11.0 257.0 L7.0 257.0 7.0 253.0" fill="none" stroke="#ffffff" stroke-linecap="round" stroke-linejoin="round" stroke-opacity="0.5019608" stroke-width="0.05"/>
    <path d="M242.0 256.0 L238.0 256.0 238.0 252.0" fill="none" stroke="#ffffff" stroke-linecap="round" stroke-linejoin="round" stroke-opacity="0.5019608" stroke-width="0.05"/>
    <path d="M739.0 253.0 L739.0 257.0 735.0 257.0" fill="none" stroke="#ffffff" stroke-linecap="round" stroke-linejoin="round" stroke-opacity="0.5019608" stroke-width="0.05"/>
    <path d="M232.3 251.95 L232.3 255.95 228.3 255.95" fill="none" stroke="#ffffff" stroke-linecap="round" stroke-linejoin="round" stroke-opacity="0.5019608" stroke-width="0.05"/>
    <path d="M228.3 16.95 L232.3 16.95 232.3 20.95" fill="none" stroke="#ffffff" stroke-linecap="round" stroke-linejoin="round" stroke-opacity="0.5019608" stroke-width="0.05"/>
  </g>
  <defs>
    <linearGradient gradientTransform="matrix(0.0018, 0.0, 0.0, 0.0018, 241.5, 21.5)" gradientUnits="userSpaceOnUse" id="gradient0" spreadMethod="pad" x1="-819.2" x2="819.2">
      <stop offset="0.0" stop-color="#ddddcc"/>
      <stop offset="0.26666666666666666" stop-color="#ffffff"/>
    </linearGradient>
    <linearGradient gradientTransform="matrix(0.0018, 0.0, 0.0, 0.0018, 576.5, 20.5)" gradientUnits="userSpaceOnUse" id="gradient1" spreadMethod="pad" x1="-819.2" x2="819.2">
      <stop offset="0.0" stop-color="#ddddcc"/>
      <stop offset="0.26666666666666666" stop-color="#ffffff"/>
    </linearGradient>
    <linearGradient gradientTransform="matrix(0.0018, 0.0, 0.0, 0.0018, 791.5, 21.5)" gradientUnits="userSpaceOnUse" id="gradient2" spreadMethod="pad" x1="-819.2" x2="819.2">
      <stop offset="0.0" stop-color="#ddddcc"/>
      <stop offset="0.26666666666666666" stop-color="#ffffff"/>
    </linearGradient>
    <linearGradient gradientTransform="matrix(0.0018, 0.0, 0.0, 0.0018, 791.5, 29.5)" gradientUnits="userSpaceOnUse" id="gradient3" spreadMethod="pad" x1="-819.2" x2="819.2">
      <stop offset="0.0" stop-color="#ddddcc"/>
      <stop offset="0.26666666666666666" stop-color="#ffffff"/>
    </linearGradient>
    <linearGradient gradientTransform="matrix(0.0018, 0.0, 0.0, 0.0018, 791.5, 37.5)" gradientUnits="userSpaceOnUse" id="gradient4" spreadMethod="pad" x1="-819.2" x2="819.2">
      <stop offset="0.0" stop-color="#ddddcc"/>
      <stop offset="0.26666666666666666" stop-color="#ffffff"/>
    </linearGradient>
    <linearGradient gradientTransform="matrix(0.0018, 0.0, 0.0, 0.0018, 791.5, 45.5)" gradientUnits="userSpaceOnUse" id="gradient5" spreadMethod="pad" x1="-819.2" x2="819.2">
      <stop offset="0.0" stop-color="#ddddcc"/>
      <stop offset="0.26666666666666666" stop-color="#ffffff"/>
    </linearGradient>
    <linearGradient gradientTransform="matrix(0.0018, 0.0, 0.0, 0.0018, 791.5, 69.5)" gradientUnits="userSpaceOnUse" id="gradient6" spreadMethod="pad" x1="-819.2" x2="819.2">
      <stop offset="0.0" stop-color="#ddddcc"/>
      <stop offset="0.26666666666666666" stop-color="#ffffff"/>
    </linearGradient>
  </defs>
</svg>
