<?xml version="1.0" encoding="UTF-8" standalone="no"?>
<svg xmlns:xlink="http://www.w3.org/1999/xlink" height="20.0px" width="20.0px" xmlns="http://www.w3.org/2000/svg">
  <g transform="matrix(1.0, 0.0, 0.0, 1.0, -38.0, -12.5)">
    <path d="M48.0 12.5 L48.0 18.1 Q49.75 18.1 51.0 19.35 52.3 20.7 52.3 22.5 L52.3 22.6 58.0 22.6 M48.0 18.1 Q46.2 18.1 44.85 19.35 43.65 20.7 43.65 22.5 L43.65 22.6 Q43.65 24.3 44.85 25.55 46.2 26.9 48.0 26.9 49.75 26.9 51.0 25.55 52.3 24.3 52.3 22.6 M43.65 22.6 L38.0 22.6 M48.0 26.9 L48.0 32.5" fill="none" stroke="#ff0000" stroke-linecap="round" stroke-linejoin="round" stroke-width="0.05"/>
  </g>
</svg>
