<?xml version="1.0" encoding="UTF-8" standalone="no"?>
<svg xmlns:xlink="http://www.w3.org/1999/xlink" height="45.5px" width="45.5px" xmlns="http://www.w3.org/2000/svg">
  <g transform="matrix(1.0, 0.0, 0.0, 1.0, 22.7, 22.75)">
    <path d="M16.15 -16.1 Q22.8 -9.45 22.8 0.0 22.8 9.45 16.15 16.1 9.5 22.75 0.05 22.75 -9.4 22.75 -16.05 16.1 -22.7 9.45 -22.7 0.0 -22.7 -9.45 -16.05 -16.1 -9.4 -22.75 0.05 -22.75 9.5 -22.75 16.15 -16.1 M0.05 -18.2 Q-7.45 -18.2 -12.8 -12.9 -18.2 -7.6 -18.15 0.0 -18.2 7.45 -12.8 12.85 -7.45 18.15 0.05 18.2 7.6 18.15 12.9 12.85 18.2 7.45 18.25 0.0 18.2 -7.6 12.9 -12.9 7.6 -18.2 0.05 -18.2" fill="#ff0000" fill-rule="evenodd" stroke="none"/>
  </g>
</svg>
