<?xml version="1.0" encoding="UTF-8" standalone="no"?>
<svg xmlns:xlink="http://www.w3.org/1999/xlink" height="9.2px" width="43.75px" xmlns="http://www.w3.org/2000/svg">
  <g transform="matrix(1.0, 0.0, 0.0, 1.0, 21.85, 4.6)">
    <path d="M5.95 -1.0 L4.7 -0.7 Q4.25 -0.45 4.15 0.15 L7.7 0.15 Q7.65 -0.4 7.2 -0.7 L5.95 -1.0 M9.45 -1.8 Q9.4 -3.35 10.85 -4.05 12.05 -4.65 14.4 -4.6 17.55 -4.65 18.85 -3.7 L18.85 -4.4 21.9 -4.4 21.9 2.2 20.25 2.2 20.0 2.85 21.9 2.85 21.9 4.5 18.85 4.5 18.85 3.85 Q17.5 4.55 14.75 4.6 L12.05 4.35 Q10.65 4.05 10.0 3.4 L9.2 3.95 Q8.0 4.55 6.0 4.55 L3.0 4.0 3.2 4.25 -0.5 4.25 -0.65 3.75 -0.7 2.65 -0.9 1.9 Q-1.15 1.6 -1.6 1.6 L-4.0 1.6 -4.0 4.25 -7.35 4.25 -7.35 1.8 -9.35 1.8 -9.35 4.25 -14.65 4.25 -14.65 0.85 -18.45 0.85 -18.45 4.25 -21.85 4.25 -21.85 -4.35 -18.45 -4.35 -18.45 -1.35 -14.65 -1.35 -14.65 -4.35 -12.35 -4.35 -12.35 -4.6 -9.35 -4.6 -9.35 -2.95 -11.25 -2.95 -11.25 -2.3 -9.35 -2.3 -9.35 -0.3 -7.35 -0.3 -7.35 -4.35 -0.25 -4.35 1.8 -4.0 2.6 -3.25 3.0 -2.05 Q4.1 -2.6 5.75 -2.6 8.2 -2.6 9.45 -1.65 L9.45 -1.8 M13.05 -2.05 Q13.0 -1.7 13.45 -1.6 L17.55 -1.0 18.85 -0.65 18.85 -1.8 16.0 -1.8 Q15.95 -2.3 15.45 -2.5 L14.4 -2.65 Q13.0 -2.7 13.05 -2.05 M-4.0 -0.55 L-1.6 -0.55 -0.85 -0.75 -0.65 -1.35 -0.9 -2.0 -1.6 -2.15 -4.0 -2.15 -4.0 -0.55 M15.65 1.2 L11.75 0.6 10.6 0.25 10.75 1.7 13.4 1.7 Q13.4 2.1 13.75 2.3 L14.9 2.5 16.0 2.3 16.25 1.8 Q16.25 1.3 15.65 1.2 M9.3 1.7 L4.15 1.7 Q4.1 2.1 4.55 2.45 5.05 2.85 5.95 2.85 L6.9 2.75 7.5 2.3 9.35 2.3 9.3 1.7" fill="#999999" fill-rule="evenodd" stroke="none"/>
  </g>
</svg>
