<?xml version="1.0" encoding="UTF-8" standalone="no"?>
<svg xmlns:xlink="http://www.w3.org/1999/xlink" height="124.95px" width="233.3px" xmlns="http://www.w3.org/2000/svg">
  <g transform="matrix(1.0, 0.0, 0.0, 1.0, -457.5, -345.0)">
    <path d="M680.55 388.75 Q682.35 387.0 684.8 387.0 687.25 387.0 689.0 388.75 690.8 390.55 690.8 393.0 690.8 395.45 689.0 397.2 687.25 399.0 684.8 399.0 682.35 399.0 680.55 397.2 678.8 395.45 678.8 393.0 678.8 390.55 680.55 388.75" fill="url(#gradient0)" fill-rule="evenodd" stroke="none"/>
    <path d="M465.5 345.3 Q466.7 345.75 467.7 346.75 469.5 348.5 469.5 351.0 469.5 353.45 467.7 355.2 466.7 356.2 465.5 356.65 L463.5 357.0 Q461.0 357.0 459.25 355.2 457.5 353.45 457.5 351.0 457.5 348.5 459.25 346.75 461.0 345.0 463.5 345.0 L465.5 345.3" fill="url(#gradient1)" fill-rule="evenodd" stroke="none"/>
    <path d="M567.1 468.15 Q565.35 469.95 562.95 469.95 560.45 469.95 558.65 468.15 556.9 466.4 556.95 463.95 556.9 461.45 558.65 459.7 560.45 457.95 562.95 457.95 565.35 457.95 567.1 459.7 568.9 461.45 568.95 463.95 568.9 466.4 567.1 468.15" fill="url(#gradient2)" fill-rule="evenodd" stroke="none"/>
  </g>
  <defs>
    <radialGradient cx="0" cy="0" gradientTransform="matrix(0.0076, 0.0, 0.0, 0.0076, 684.8, 393.0)" gradientUnits="userSpaceOnUse" id="gradient0" r="819.2" spreadMethod="pad">
      <stop offset="0.4588235294117647" stop-color="#ffffff"/>
      <stop offset="0.7176470588235294" stop-color="#ffffff" stop-opacity="0.0"/>
    </radialGradient>
    <radialGradient cx="0" cy="0" gradientTransform="matrix(0.0081, 0.0, 0.0, 0.0081, 463.5, 351.0)" gradientUnits="userSpaceOnUse" id="gradient1" r="819.2" spreadMethod="pad">
      <stop offset="0.4588235294117647" stop-color="#ffffff"/>
      <stop offset="0.7176470588235294" stop-color="#ffffff" stop-opacity="0.0"/>
    </radialGradient>
    <radialGradient cx="0" cy="0" gradientTransform="matrix(0.0076, 0.0, 0.0, 0.0076, 562.9, 463.95)" gradientUnits="userSpaceOnUse" id="gradient2" r="819.2" spreadMethod="pad">
      <stop offset="0.4588235294117647" stop-color="#ffffff"/>
      <stop offset="0.7176470588235294" stop-color="#ffffff" stop-opacity="0.0"/>
    </radialGradient>
  </defs>
</svg>
