<?xml version="1.0" encoding="UTF-8" standalone="no"?>
<svg xmlns:xlink="http://www.w3.org/1999/xlink" height="198.5px" width="642.15px" xmlns="http://www.w3.org/2000/svg">
  <g transform="matrix(1.0, 0.0, 0.0, 1.0, 265.1, -44.55)">
    <path d="M-250.2 202.35 Q-246.65 210.7 -241.95 218.2 -139.05 184.5 -12.05 157.05 -23.8 152.75 -35.25 147.95 L-35.25 144.2 25.15 90.45 Q75.25 92.95 122.2 100.05 L94.25 155.0 Q90.9 147.45 81.75 147.1 71.8 149.35 65.45 163.05 62.85 168.7 83.05 172.5 L75.95 181.7 66.55 179.75 Q-90.85 209.2 -221.95 241.85 L-220.6 243.05 -238.1 243.05 -259.55 243.05 -264.35 233.35 Q-266.4 225.4 -262.75 219.85 -258.95 211.5 -255.2 208.55 -253.05 204.9 -251.4 203.3 L-250.2 202.35 Q-245.5 193.65 -243.2 192.4 -154.95 165.2 -46.6 146.3 -43.3 148.7 -40.05 147.5 L-34.65 140.65 Q-39.85 143.35 -45.15 140.15 -46.6 125.4 -38.85 122.95 -31.1 120.45 -27.0 126.35 -24.05 124.85 -21.95 126.65 L22.55 89.15 Q25.95 86.35 31.35 85.35 49.05 80.9 68.65 79.2 L64.65 73.45 64.65 69.75 64.65 68.85 Q64.65 67.15 58.5 66.65 51.55 59.8 58.55 52.25 61.8 50.65 70.3 49.55 L177.1 44.55 Q194.1 44.15 198.2 55.75 200.4 68.0 190.3 70.9 L188.1 72.5 190.3 72.55 Q246.6 73.75 290.85 79.1 303.0 83.9 338.8 116.9 L377.05 122.35 377.05 204.55 M177.3 47.0 Q169.15 47.6 165.2 51.45 162.55 54.0 162.15 57.4 161.6 61.95 164.85 65.5 168.5 69.5 175.6 70.5 M279.15 87.55 Q304.8 113.75 322.9 146.65 L230.45 163.35 Q226.1 127.4 212.5 92.95 L279.15 87.55 M214.2 165.85 L145.9 179.6 148.8 174.6 Q148.65 166.75 144.2 161.7 137.0 158.95 123.85 159.6 119.6 159.0 117.1 163.35 114.4 168.1 115.9 176.65 L121.3 180.4 119.65 183.75 111.3 183.75 101.35 181.65 135.9 105.45 Q165.75 98.3 194.2 95.45 209.9 128.25 214.2 165.85 M64.65 69.75 L188.1 72.5 M-241.95 218.2 L-239.6 221.8 Q-232.1 232.85 -221.95 241.85 M-262.75 219.85 L-253.1 217.05 -251.4 203.3 M-253.1 217.05 Q-250.55 227.8 -243.55 236.9 L-239.6 221.8 M-243.55 236.9 L-238.1 243.05 M-12.05 157.05 Q25.8 170.95 66.55 179.75" fill="none" stroke="#ffffff" stroke-linecap="round" stroke-linejoin="round" stroke-opacity="0.2" stroke-width="0.05"/>
  </g>
</svg>
