<?xml version="1.0" encoding="UTF-8" standalone="no"?>
<svg xmlns:xlink="http://www.w3.org/1999/xlink" height="234.45px" width="423.1px" xmlns="http://www.w3.org/2000/svg">
  <g transform="matrix(1.0, 0.0, 0.0, 1.0, 211.55, 117.2)">
    <path d="M52.15 -76.6 L50.05 -73.2 54.35 -67.0 48.0 -62.6 61.7 -60.95 69.1 -66.05 65.45 -71.75 65.4 -71.8 60.1 -74.45 56.95 -75.6 44.3 -80.25 29.7 -85.55 4.05 -94.9 Q3.9 -95.0 3.8 -95.05 L4.0 -94.7 29.6 -65.2 26.65 -62.7 42.55 -62.15 M43.05 -61.9 L44.3 -60.1 48.0 -62.6 M61.7 -60.95 L62.25 -55.7 66.4 -49.65 64.65 -48.45 M73.15 -49.65 L74.25 -50.4 103.85 -7.35 103.9 52.45 100.4 55.7 99.55 59.55 Q90.85 79.45 101.65 96.15 124.4 127.9 156.75 110.7 206.7 80.1 209.05 40.2 L211.05 38.8 210.75 35.2 208.35 36.85 Q204.45 28.25 197.85 21.55 L201.2 17.35 200.45 16.25 195.65 19.55 Q181.2 18.15 178.9 13.7 L186.45 8.5 M187.2 7.65 L186.7 7.55 186.6 7.55 186.6 7.5 186.5 7.5 Q182.9 6.9 177.9 10.25 171.1 6.75 158.45 15.25 L103.85 -9.7 74.9 -51.8 76.8 -53.1 73.25 -58.2 68.65 -55.0 73.35 -48.15 70.6 -46.25 69.25 -48.2 66.25 -46.1 65.05 -47.9 M76.8 -53.1 L81.3 -56.2 73.25 -67.9 65.45 -71.75 M65.4 -71.8 L61.65 -78.85 56.95 -75.6 M44.3 -80.25 L39.35 -90.0 36.8 -91.3 30.35 -86.85 29.7 -85.55 M26.65 -62.7 L25.25 -61.45 12.5 -52.7 -47.25 -47.55 -73.75 -29.3 -84.9 -31.05 -120.65 45.0 -156.3 35.45 -211.05 21.0 -131.55 -67.6 -109.15 -83.0 -82.6 -101.25 -78.4 -104.15 -66.0 -112.7 -60.0 -111.2 -56.2 -116.7 Q-39.35 -109.2 -22.25 -103.0 L-8.1 -112.75 3.75 -95.1 3.8 -95.05 3.7 -95.05 4.0 -94.7 M156.45 15.6 L106.0 -6.6 131.65 30.7 Q143.75 22.35 156.45 15.6 M100.0 64.95 Q107.7 54.8 120.65 55.95 133.7 57.1 145.9 69.2 158.85 82.1 158.6 94.35 158.3 105.95 146.35 112.95 M109.25 47.95 L105.2 -5.4 130.55 31.5 Q119.65 39.05 109.25 47.95 M-131.55 -67.6 L-129.0 -63.95 -55.3 -66.3 -68.95 -83.75 -109.15 -83.0 M-84.9 -31.05 L-84.75 -31.3 -81.4 -38.1 -91.25 -39.9 -110.4 -36.9 -156.3 35.45 M-129.0 -63.95 L-110.4 -36.9 M-55.3 -66.3 L-50.1 -59.6 -44.25 -59.85 -50.45 -67.85 -78.4 -104.15 M-47.25 -47.55 L-49.1 -54.85 -84.75 -31.3 M-60.0 -111.2 L-9.4 -98.4 -22.25 -103.0 M-82.6 -101.25 L-68.95 -83.75 M-81.4 -38.1 L-50.1 -59.6 M25.25 -61.45 L-44.25 -59.85 M-50.45 -67.85 L29.6 -65.2 M3.7 -95.05 L-9.4 -98.4" fill="none" stroke="#880000" stroke-linecap="round" stroke-linejoin="round" stroke-width="1.0"/>
  </g>
</svg>
