<?xml version="1.0" encoding="UTF-8" standalone="no"?>
<svg xmlns:xlink="http://www.w3.org/1999/xlink" height="378.45px" width="215.4px" xmlns="http://www.w3.org/2000/svg">
  <g transform="matrix(1.0, 0.0, 0.0, 1.0, 109.95, 173.0)">
    <path d="M65.8 86.85 L66.0 111.45 Q70.4 119.5 68.65 128.7 68.1 131.4 66.0 133.2 66.75 139.2 66.9 145.2 66.95 147.5 66.25 149.7 69.85 162.05 70.75 175.15 L70.9 176.9 Q71.15 175.5 71.75 174.05 73.1 170.9 72.75 167.6 71.55 156.8 76.35 147.6 L77.4 145.6 Q79.6 141.25 80.05 136.15 78.85 133.5 79.55 130.5 L80.25 127.2 70.6 103.5 Q69.45 100.7 68.8 97.8 66.95 92.4 65.8 86.85 M-108.9 81.35 L-102.45 139.65 Q-100.9 153.9 -103.8 168.05 -105.35 175.55 -102.6 182.8 -96.7 198.55 -82.25 194.7 L-81.25 193.45 Q-77.35 188.05 -76.25 181.45 L-75.0 181.35 -74.5 181.45 -73.6 182.55 Q-71.2 184.55 -69.0 185.45 L-67.3 192.3 Q-66.3 196.3 -62.65 197.3 -62.2 198.9 -61.05 200.65 L-57.75 202.85 Q-2.75 203.95 52.25 205.45 58.85 205.6 64.8 203.05 L65.75 202.7 66.45 201.95 Q67.3 201.55 67.85 200.4 72.05 191.85 71.4 181.75 72.05 183.35 73.35 184.8 74.35 190.3 79.8 190.8 91.35 191.9 93.15 180.5 L94.0 179.45 99.3 172.7 Q103.85 167.0 104.15 159.95 104.25 157.45 103.55 155.1 101.55 148.6 101.9 141.8 103.55 140.25 104.05 138.1 105.05 133.7 102.55 129.85 103.85 124.35 100.7 119.95 100.45 119.6 100.5 119.35 101.65 114.05 98.05 110.35 98.95 108.85 98.7 107.05 98.15 103.05 95.25 99.75 L95.05 97.15 93.95 92.15 Q94.7 90.25 94.2 88.2 93.35 84.35 91.65 80.9 90.95 78.6 91.45 76.2 92.3 72.2 90.0 69.0 L89.8 67.3 Q89.2 62.5 88.2 57.85 87.3 53.55 86.75 49.25 L86.85 48.7 Q89.6 32.25 95.65 16.85 L99.0 16.5 101.75 16.2 101.95 15.85 102.2 15.75 Q103.45 14.55 103.5 12.9 L103.5 12.55 104.0 11.25 Q104.85 5.7 104.85 0.0 L104.85 -0.5 Q106.35 -10.45 104.2 -20.9 101.0 -36.5 91.0 -48.5 73.7 -69.35 48.75 -77.5 L48.5 -78.25 48.1 -79.8 48.0 -80.5 49.65 -83.55 Q51.2 -87.05 51.25 -91.0 53.15 -92.9 54.25 -95.15 55.25 -97.15 55.75 -99.1 L56.9 -100.35 Q60.5 -105.05 55.6 -107.25 54.7 -110.4 52.5 -113.5 L53.55 -116.5 54.75 -120.0 Q59.7 -135.75 51.6 -149.55 47.85 -156.0 44.4 -162.6 38.9 -173.25 28.0 -173.0 19.9 -169.85 11.25 -166.8 6.35 -165.1 1.85 -162.5 -0.75 -161.0 -2.55 -159.05 L-3.45 -158.6 -5.7 -157.1 Q-17.95 -148.1 -19.7 -133.0 -20.0 -130.75 -20.7 -128.75 -25.1 -116.55 -28.2 -103.05 -29.45 -97.8 -29.9 -92.45 -30.15 -89.2 -30.65 -86.0 L-38.05 -82.0 -54.65 -72.35 Q-57.2 -70.8 -59.55 -69.0 -67.45 -62.8 -74.8 -56.05 -76.4 -54.6 -77.05 -52.55 -78.55 -48.05 -81.4 -42.9 -86.2 -35.7 -88.7 -27.5 L-89.15 -24.9 -89.15 -23.35 -93.15 -14.4 Q-97.6 -4.7 -100.85 7.1 -103.3 14.95 -105.25 22.85 -112.2 51.6 -108.9 81.35" fill="#ffffff" fill-rule="evenodd" stroke="none">
      <animate attributeName="fill" dur="2s" repeatCount="indefinite" values="#ffffff;#000001"/>
      <animate attributeName="fill-opacity" dur="2s" repeatCount="indefinite" values="1.0;1.0"/>
      <animate attributeName="d" dur="2s" repeatCount="indefinite" values="M65.8 86.85 L66.0 111.45 Q70.4 119.5 68.65 128.7 68.1 131.4 66.0 133.2 66.75 139.2 66.9 145.2 66.95 147.5 66.25 149.7 69.85 162.05 70.75 175.15 L70.9 176.9 Q71.15 175.5 71.75 174.05 73.1 170.9 72.75 167.6 71.55 156.8 76.35 147.6 L77.4 145.6 Q79.6 141.25 80.05 136.15 78.85 133.5 79.55 130.5 L80.25 127.2 70.6 103.5 Q69.45 100.7 68.8 97.8 66.95 92.4 65.8 86.85 M-108.9 81.35 L-102.45 139.65 Q-100.9 153.9 -103.8 168.05 -105.35 175.55 -102.6 182.8 -96.7 198.55 -82.25 194.7 L-81.25 193.45 Q-77.35 188.05 -76.25 181.45 L-75.0 181.35 -74.5 181.45 -73.6 182.55 Q-71.2 184.55 -69.0 185.45 L-67.3 192.3 Q-66.3 196.3 -62.65 197.3 -62.2 198.9 -61.05 200.65 L-57.75 202.85 Q-2.75 203.95 52.25 205.45 58.85 205.6 64.8 203.05 L65.75 202.7 66.45 201.95 Q67.3 201.55 67.85 200.4 72.05 191.85 71.4 181.75 72.05 183.35 73.35 184.8 74.35 190.3 79.8 190.8 91.35 191.9 93.15 180.5 L94.0 179.45 99.3 172.7 Q103.85 167.0 104.15 159.95 104.25 157.45 103.55 155.1 101.55 148.6 101.9 141.8 103.55 140.25 104.05 138.1 105.05 133.7 102.55 129.85 103.85 124.35 100.7 119.95 100.45 119.6 100.5 119.35 101.65 114.05 98.05 110.35 98.95 108.85 98.7 107.05 98.15 103.05 95.25 99.75 L95.05 97.15 93.95 92.15 Q94.7 90.25 94.2 88.2 93.35 84.35 91.65 80.9 90.95 78.6 91.45 76.2 92.3 72.2 90.0 69.0 L89.8 67.3 Q89.2 62.5 88.2 57.85 87.3 53.55 86.75 49.25 L86.85 48.7 Q89.6 32.25 95.65 16.85 L99.0 16.5 101.75 16.2 101.95 15.85 102.2 15.75 Q103.45 14.55 103.5 12.9 L103.5 12.55 104.0 11.25 Q104.85 5.7 104.85 0.0 L104.85 -0.5 Q106.35 -10.45 104.2 -20.9 101.0 -36.5 91.0 -48.5 73.7 -69.35 48.75 -77.5 L48.5 -78.25 48.1 -79.8 48.0 -80.5 49.65 -83.55 Q51.2 -87.05 51.25 -91.0 53.15 -92.9 54.25 -95.15 55.25 -97.15 55.75 -99.1 L56.9 -100.35 Q60.5 -105.05 55.6 -107.25 54.7 -110.4 52.5 -113.5 L53.55 -116.5 54.75 -120.0 Q59.7 -135.75 51.6 -149.55 47.85 -156.0 44.4 -162.6 38.9 -173.25 28.0 -173.0 19.9 -169.85 11.25 -166.8 6.35 -165.1 1.85 -162.5 -0.75 -161.0 -2.55 -159.05 L-3.45 -158.6 -5.7 -157.1 Q-17.95 -148.1 -19.7 -133.0 -20.0 -130.75 -20.7 -128.75 -25.1 -116.55 -28.2 -103.05 -29.45 -97.8 -29.9 -92.45 -30.15 -89.2 -30.65 -86.0 L-38.05 -82.0 -54.65 -72.35 Q-57.2 -70.8 -59.55 -69.0 -67.45 -62.8 -74.8 -56.05 -76.4 -54.6 -77.05 -52.55 -78.55 -48.05 -81.4 -42.9 -86.2 -35.7 -88.7 -27.5 L-89.15 -24.9 -89.15 -23.35 -93.15 -14.4 Q-97.6 -4.7 -100.85 7.1 -103.3 14.95 -105.25 22.85 -112.2 51.6 -108.9 81.35;M65.8 86.85 L66.0 111.45 Q70.4 119.5 68.65 128.7 68.1 131.4 66.0 133.2 66.75 139.2 66.9 145.2 66.95 147.5 66.25 149.7 69.85 162.05 70.75 175.15 L70.9 176.9 Q71.15 175.5 71.75 174.05 73.1 170.9 72.75 167.6 71.55 156.8 76.35 147.6 L77.4 145.6 Q79.6 141.25 80.05 136.15 78.85 133.5 79.55 130.5 L80.25 127.2 70.6 103.5 Q69.45 100.7 68.8 97.8 66.95 92.4 65.8 86.85 M-108.9 81.35 L-102.45 139.65 Q-100.9 153.9 -103.8 168.05 -105.35 175.55 -102.6 182.8 -96.7 198.55 -82.25 194.7 L-81.25 193.45 Q-77.35 188.05 -76.25 181.45 L-75.0 181.35 -74.5 181.45 -73.6 182.55 Q-71.2 184.55 -69.0 185.45 L-67.3 192.3 Q-66.3 196.3 -62.65 197.3 -62.2 198.9 -61.05 200.65 L-57.75 202.85 Q-2.75 203.95 52.25 205.45 58.85 205.6 64.8 203.05 L65.75 202.7 66.45 201.95 Q67.3 201.55 67.85 200.4 72.05 191.85 71.4 181.75 72.05 183.35 73.35 184.8 74.35 190.3 79.8 190.8 91.35 191.9 93.15 180.5 L94.0 179.45 99.3 172.7 Q103.85 167.0 104.15 159.95 104.25 157.45 103.55 155.1 101.55 148.6 101.9 141.8 103.55 140.25 104.05 138.1 105.05 133.7 102.55 129.85 103.85 124.35 100.7 119.95 100.45 119.6 100.5 119.35 101.65 114.05 98.05 110.35 98.95 108.85 98.7 107.05 98.15 103.05 95.25 99.75 L95.05 97.15 93.95 92.15 Q94.7 90.25 94.2 88.2 93.35 84.35 91.65 80.9 90.95 78.6 91.45 76.2 92.3 72.2 90.0 69.0 L89.8 67.3 Q89.2 62.5 88.2 57.85 87.3 53.55 86.75 49.25 L86.85 48.7 Q89.6 32.25 95.65 16.85 L99.0 16.5 101.75 16.2 101.95 15.85 102.2 15.75 Q103.45 14.55 103.5 12.9 L103.5 12.55 104.0 11.25 Q104.85 5.7 104.85 0.0 L104.85 -0.5 Q106.35 -10.45 104.2 -20.9 101.0 -36.5 91.0 -48.5 73.7 -69.35 48.75 -77.5 L48.5 -78.25 48.1 -79.8 48.0 -80.5 49.65 -83.55 Q51.2 -87.05 51.25 -91.0 53.15 -92.9 54.25 -95.15 55.25 -97.15 55.75 -99.1 L56.9 -100.35 Q60.5 -105.05 55.6 -107.25 54.7 -110.4 52.5 -113.5 L53.55 -116.5 54.75 -120.0 Q59.7 -135.75 51.6 -149.55 47.85 -156.0 44.4 -162.6 38.9 -173.25 28.0 -173.0 19.9 -169.85 11.25 -166.8 6.35 -165.1 1.85 -162.5 -0.75 -161.0 -2.55 -159.05 L-3.45 -158.6 -5.7 -157.1 Q-17.95 -148.1 -19.7 -133.0 -20.0 -130.75 -20.7 -128.75 -25.1 -116.55 -28.2 -103.05 -29.45 -97.8 -29.9 -92.45 -30.15 -89.2 -30.65 -86.0 L-38.05 -82.0 -54.65 -72.35 Q-57.2 -70.8 -59.55 -69.0 -67.45 -62.8 -74.8 -56.05 -76.4 -54.6 -77.05 -52.55 -78.55 -48.05 -81.4 -42.9 -86.2 -35.7 -88.7 -27.5 L-89.15 -24.9 -89.15 -23.35 -93.15 -14.4 Q-97.6 -4.7 -100.85 7.1 -103.3 14.95 -105.25 22.85 -112.2 51.6 -108.9 81.35"/>
    </path>
    <path d="M-108.9 81.35 Q-112.2 51.6 -105.25 22.85 -103.3 14.95 -100.85 7.1 -97.6 -4.7 -93.15 -14.4 L-89.15 -23.35 -89.15 -24.9 -88.7 -27.5 Q-86.2 -35.7 -81.4 -42.9 -78.55 -48.05 -77.05 -52.55 -76.4 -54.6 -74.8 -56.05 -67.45 -62.8 -59.55 -69.0 -57.2 -70.8 -54.65 -72.35 L-38.05 -82.0 -30.65 -86.0 Q-30.15 -89.2 -29.9 -92.45 -29.45 -97.8 -28.2 -103.05 -25.1 -116.55 -20.7 -128.75 -20.0 -130.75 -19.7 -133.0 -17.95 -148.1 -5.7 -157.1 L-3.45 -158.6 -2.55 -159.05 Q-0.75 -161.0 1.85 -162.5 6.35 -165.1 11.25 -166.8 19.9 -169.85 28.0 -173.0 38.9 -173.25 44.4 -162.6 47.85 -156.0 51.6 -149.55 59.7 -135.75 54.75 -120.0 L53.55 -116.5 52.5 -113.5 Q54.7 -110.4 55.6 -107.25 60.5 -105.05 56.9 -100.35 L55.75 -99.1 Q55.25 -97.15 54.25 -95.15 53.15 -92.9 51.25 -91.0 51.2 -87.05 49.65 -83.55 L48.0 -80.5 48.1 -79.8 48.5 -78.25 48.75 -77.5 Q73.7 -69.35 91.0 -48.5 101.0 -36.5 104.2 -20.9 106.35 -10.45 104.85 -0.5 L104.85 0.0 Q104.85 5.7 104.0 11.25 L103.5 12.55 103.5 12.9 Q103.45 14.55 102.2 15.75 L101.95 15.85 101.75 16.2 99.0 16.5 95.65 16.85 Q89.6 32.25 86.85 48.7 L86.75 49.25 Q87.3 53.55 88.2 57.85 89.2 62.5 89.8 67.3 L90.0 69.0 Q92.3 72.2 91.45 76.2 90.95 78.6 91.65 80.9 93.35 84.35 94.2 88.2 94.7 90.25 93.95 92.15 L95.05 97.15 95.25 99.75 Q98.15 103.05 98.7 107.05 98.95 108.85 98.05 110.35 101.65 114.05 100.5 119.35 100.45 119.6 100.7 119.95 103.85 124.35 102.55 129.85 105.05 133.7 104.05 138.1 103.55 140.25 101.9 141.8 101.55 148.6 103.55 155.1 104.25 157.45 104.15 159.95 103.85 167.0 99.3 172.7 L94.0 179.45 93.15 180.5 Q91.35 191.9 79.8 190.8 74.35 190.3 73.35 184.8 72.05 183.35 71.4 181.75 72.05 191.85 67.85 200.4 67.3 201.55 66.45 201.95 L65.75 202.7 64.8 203.05 Q58.85 205.6 52.25 205.45 -2.75 203.95 -57.75 202.85 -59.6 202.8 -61.05 200.65 -62.2 198.9 -62.65 197.3 -66.3 196.3 -67.3 192.3 L-69.0 185.45 Q-71.2 184.55 -73.6 182.55 L-74.5 181.45 -75.0 181.35 -76.25 181.45 Q-77.35 188.05 -81.25 193.45 L-82.25 194.7 Q-96.7 198.55 -102.6 182.8 -105.35 175.55 -103.8 168.05 -100.9 153.9 -102.45 139.65 L-108.9 81.35 Q-112.2 51.6 -105.25 22.85 -103.3 14.95 -100.85 7.1 -97.6 -4.7 -93.15 -14.4 L-89.15 -23.35 -89.15 -24.9 -88.7 -27.5 Q-86.2 -35.7 -81.4 -42.9 -78.55 -48.05 -77.05 -52.55 -76.4 -54.6 -74.8 -56.05 -67.45 -62.8 -59.55 -69.0 -57.2 -70.8 -54.65 -72.35 L-38.05 -82.0 -30.65 -86.0 Q-30.15 -89.2 -29.9 -92.45 -29.45 -97.8 -28.2 -103.05 -25.1 -116.55 -20.7 -128.75 -20.0 -130.75 -19.7 -133.0 -17.95 -148.1 -5.7 -157.1 L-3.45 -158.6 -2.55 -159.05 Q-0.75 -161.0 1.85 -162.5 6.35 -165.1 11.25 -166.8 19.9 -169.85 28.0 -173.0 38.9 -173.25 44.4 -162.6 47.85 -156.0 51.6 -149.55 59.7 -135.75 54.75 -120.0 L53.55 -116.5 52.5 -113.5 Q54.7 -110.4 55.6 -107.25 60.5 -105.05 56.9 -100.35 L55.75 -99.1 Q55.25 -97.15 54.25 -95.15 53.15 -92.9 51.25 -91.0 51.2 -87.05 49.65 -83.55 L48.0 -80.5 48.1 -79.8 48.5 -78.25 48.75 -77.5 Q73.7 -69.35 91.0 -48.5 101.0 -36.5 104.2 -20.9 106.35 -10.45 104.85 -0.5 L104.85 0.0 Q104.85 5.7 104.0 11.25 L103.5 12.55 103.5 12.9 Q103.45 14.55 102.2 15.75 L101.95 15.85 101.75 16.2 99.0 16.5 95.65 16.85 Q89.6 32.25 86.85 48.7 L86.75 49.25 Q87.3 53.55 88.2 57.85 89.2 62.5 89.8 67.3 L90.0 69.0 Q92.3 72.2 91.45 76.2 90.95 78.6 91.65 80.9 93.35 84.35 94.2 88.2 94.7 90.25 93.95 92.15 L95.05 97.15 95.25 99.75 Q98.15 103.05 98.7 107.05 98.95 108.85 98.05 110.35 101.65 114.05 100.5 119.35 100.45 119.6 100.7 119.95 103.85 124.35 102.55 129.85 105.05 133.7 104.05 138.1 103.55 140.25 101.9 141.8 101.55 148.6 103.55 155.1 104.25 157.45 104.15 159.95 103.85 167.0 99.3 172.7 L94.0 179.45 93.15 180.5 Q91.35 191.9 79.8 190.8 74.35 190.3 73.35 184.8 72.05 183.35 71.4 181.75 72.05 191.85 67.85 200.4 67.3 201.55 66.45 201.95 L65.75 202.7 64.8 203.05 Q58.85 205.6 52.25 205.45 -2.75 203.95 -57.75 202.85 L-61.05 200.65 Q-62.2 198.9 -62.65 197.3 -66.3 196.3 -67.3 192.3 L-69.0 185.45 Q-71.2 184.55 -73.6 182.55 L-74.5 181.45 -75.0 181.35 -76.25 181.45 Q-77.35 188.05 -81.25 193.45 L-82.25 194.7 Q-96.7 198.55 -102.6 182.8 -105.35 175.55 -103.8 168.05 -100.9 153.9 -102.45 139.65 L-108.9 81.35 M65.8 86.85 Q66.95 92.4 68.8 97.8 69.45 100.7 70.6 103.5 L80.25 127.2 79.55 130.5 Q78.85 133.5 80.05 136.15 79.6 141.25 77.4 145.6 L76.35 147.6 Q71.55 156.8 72.75 167.6 73.1 170.9 71.75 174.05 71.15 175.5 70.9 176.9 L70.75 175.15 Q69.85 162.05 66.25 149.7 66.95 147.5 66.9 145.2 66.75 139.2 66.0 133.2 68.1 131.4 68.65 128.7 70.4 119.5 66.0 111.45 L65.8 86.85 Q66.95 92.4 68.8 97.8 69.45 100.7 70.6 103.5 L80.25 127.2 79.55 130.5 Q78.85 133.5 80.05 136.15 79.6 141.25 77.4 145.6 L76.35 147.6 Q71.55 156.8 72.75 167.6 73.1 170.9 71.75 174.05 71.15 175.5 70.9 176.9 L70.75 175.15 Q69.85 162.05 66.25 149.7 66.95 147.5 66.9 145.2 66.75 139.2 66.0 133.2 68.1 131.4 68.65 128.7 70.4 119.5 66.0 111.45 L65.8 86.85" fill="none" stroke="#000000" stroke-linecap="round" stroke-linejoin="round" stroke-width="0.05">
      <animate attributeName="stroke" dur="2s" repeatCount="indefinite" values="#000000;#000001"/>
      <animate attributeName="stroke-width" dur="2s" repeatCount="indefinite" values="0.05;0.05"/>
      <animate attributeName="fill-opacity" dur="2s" repeatCount="indefinite" values="1.0;1.0"/>
      <animate attributeName="d" dur="2s" repeatCount="indefinite" values="M-108.9 81.35 Q-112.2 51.6 -105.25 22.85 -103.3 14.95 -100.85 7.1 -97.6 -4.7 -93.15 -14.4 L-89.15 -23.35 -89.15 -24.9 -88.7 -27.5 Q-86.2 -35.7 -81.4 -42.9 -78.55 -48.05 -77.05 -52.55 -76.4 -54.6 -74.8 -56.05 -67.45 -62.8 -59.55 -69.0 -57.2 -70.8 -54.65 -72.35 L-38.05 -82.0 -30.65 -86.0 Q-30.15 -89.2 -29.9 -92.45 -29.45 -97.8 -28.2 -103.05 -25.1 -116.55 -20.7 -128.75 -20.0 -130.75 -19.7 -133.0 -17.95 -148.1 -5.7 -157.1 L-3.45 -158.6 -2.55 -159.05 Q-0.75 -161.0 1.85 -162.5 6.35 -165.1 11.25 -166.8 19.9 -169.85 28.0 -173.0 38.9 -173.25 44.4 -162.6 47.85 -156.0 51.6 -149.55 59.7 -135.75 54.75 -120.0 L53.55 -116.5 52.5 -113.5 Q54.7 -110.4 55.6 -107.25 60.5 -105.05 56.9 -100.35 L55.75 -99.1 Q55.25 -97.15 54.25 -95.15 53.15 -92.9 51.25 -91.0 51.2 -87.05 49.65 -83.55 L48.0 -80.5 48.1 -79.8 48.5 -78.25 48.75 -77.5 Q73.7 -69.35 91.0 -48.5 101.0 -36.5 104.2 -20.9 106.35 -10.45 104.85 -0.5 L104.85 0.0 Q104.85 5.7 104.0 11.25 L103.5 12.55 103.5 12.9 Q103.45 14.55 102.2 15.75 L101.95 15.85 101.75 16.2 99.0 16.5 95.65 16.85 Q89.6 32.25 86.85 48.7 L86.75 49.25 Q87.3 53.55 88.2 57.85 89.2 62.5 89.8 67.3 L90.0 69.0 Q92.3 72.2 91.45 76.2 90.95 78.6 91.65 80.9 93.35 84.35 94.2 88.2 94.7 90.25 93.95 92.15 L95.05 97.15 95.25 99.75 Q98.15 103.05 98.7 107.05 98.95 108.85 98.05 110.35 101.65 114.05 100.5 119.35 100.45 119.6 100.7 119.95 103.85 124.35 102.55 129.85 105.05 133.7 104.05 138.1 103.55 140.25 101.9 141.8 101.55 148.6 103.55 155.1 104.25 157.45 104.15 159.95 103.85 167.0 99.3 172.7 L94.0 179.45 93.15 180.5 Q91.35 191.9 79.8 190.8 74.35 190.3 73.35 184.8 72.05 183.35 71.4 181.75 72.05 191.85 67.85 200.4 67.3 201.55 66.45 201.95 L65.75 202.7 64.8 203.05 Q58.85 205.6 52.25 205.45 -2.75 203.95 -57.75 202.85 -59.6 202.8 -61.05 200.65 -62.2 198.9 -62.65 197.3 -66.3 196.3 -67.3 192.3 L-69.0 185.45 Q-71.2 184.55 -73.6 182.55 L-74.5 181.45 -75.0 181.35 -76.25 181.45 Q-77.35 188.05 -81.25 193.45 L-82.25 194.7 Q-96.7 198.55 -102.6 182.8 -105.35 175.55 -103.8 168.05 -100.9 153.9 -102.45 139.65 L-108.9 81.35 Q-112.2 51.6 -105.25 22.85 -103.3 14.95 -100.85 7.1 -97.6 -4.7 -93.15 -14.4 L-89.15 -23.35 -89.15 -24.9 -88.7 -27.5 Q-86.2 -35.7 -81.4 -42.9 -78.55 -48.05 -77.05 -52.55 -76.4 -54.6 -74.8 -56.05 -67.45 -62.8 -59.55 -69.0 -57.2 -70.8 -54.65 -72.35 L-38.05 -82.0 -30.65 -86.0 Q-30.15 -89.2 -29.9 -92.45 -29.45 -97.8 -28.2 -103.05 -25.1 -116.55 -20.7 -128.75 -20.0 -130.75 -19.7 -133.0 -17.95 -148.1 -5.7 -157.1 L-3.45 -158.6 -2.55 -159.05 Q-0.75 -161.0 1.85 -162.5 6.35 -165.1 11.25 -166.8 19.9 -169.85 28.0 -173.0 38.9 -173.25 44.4 -162.6 47.85 -156.0 51.6 -149.55 59.7 -135.75 54.75 -120.0 L53.55 -116.5 52.5 -113.5 Q54.7 -110.4 55.6 -107.25 60.5 -105.05 56.9 -100.35 L55.75 -99.1 Q55.25 -97.15 54.25 -95.15 53.15 -92.9 51.25 -91.0 51.2 -87.05 49.65 -83.55 L48.0 -80.5 48.1 -79.8 48.5 -78.25 48.75 -77.5 Q73.7 -69.35 91.0 -48.5 101.0 -36.5 104.2 -20.9 106.35 -10.45 104.85 -0.5 L104.85 0.0 Q104.85 5.7 104.0 11.25 L103.5 12.55 103.5 12.9 Q103.45 14.55 102.2 15.75 L101.95 15.85 101.75 16.2 99.0 16.5 95.65 16.85 Q89.6 32.25 86.85 48.7 L86.75 49.25 Q87.3 53.55 88.2 57.85 89.2 62.5 89.8 67.3 L90.0 69.0 Q92.3 72.2 91.45 76.2 90.95 78.6 91.65 80.9 93.35 84.35 94.2 88.2 94.7 90.25 93.95 92.15 L95.05 97.15 95.25 99.75 Q98.15 103.05 98.7 107.05 98.95 108.85 98.05 110.35 101.65 114.05 100.5 119.35 100.45 119.6 100.7 119.95 103.85 124.35 102.55 129.85 105.05 133.7 104.05 138.1 103.55 140.25 101.9 141.8 101.55 148.6 103.55 155.1 104.25 157.45 104.15 159.95 103.85 167.0 99.3 172.7 L94.0 179.45 93.15 180.5 Q91.35 191.9 79.8 190.8 74.35 190.3 73.35 184.8 72.05 183.35 71.4 181.75 72.05 191.85 67.85 200.4 67.3 201.55 66.45 201.95 L65.75 202.7 64.8 203.05 Q58.85 205.6 52.25 205.45 -2.75 203.95 -57.75 202.85 L-61.05 200.65 Q-62.2 198.9 -62.65 197.3 -66.3 196.3 -67.3 192.3 L-69.0 185.45 Q-71.2 184.55 -73.6 182.55 L-74.5 181.45 -75.0 181.35 -76.25 181.45 Q-77.35 188.05 -81.25 193.45 L-82.25 194.7 Q-96.7 198.55 -102.6 182.8 -105.35 175.55 -103.8 168.05 -100.9 153.9 -102.45 139.65 L-108.9 81.35 M65.8 86.85 Q66.95 92.4 68.8 97.8 69.45 100.7 70.6 103.5 L80.25 127.2 79.55 130.5 Q78.85 133.5 80.05 136.15 79.6 141.25 77.4 145.6 L76.35 147.6 Q71.55 156.8 72.75 167.6 73.1 170.9 71.75 174.05 71.15 175.5 70.9 176.9 L70.75 175.15 Q69.85 162.05 66.25 149.7 66.95 147.5 66.9 145.2 66.75 139.2 66.0 133.2 68.1 131.4 68.65 128.7 70.4 119.5 66.0 111.45 L65.8 86.85 Q66.95 92.4 68.8 97.8 69.45 100.7 70.6 103.5 L80.25 127.2 79.55 130.5 Q78.85 133.5 80.05 136.15 79.6 141.25 77.4 145.6 L76.35 147.6 Q71.55 156.8 72.75 167.6 73.1 170.9 71.75 174.05 71.15 175.5 70.9 176.9 L70.75 175.15 Q69.85 162.05 66.25 149.7 66.95 147.5 66.9 145.2 66.75 139.2 66.0 133.2 68.1 131.4 68.65 128.7 70.4 119.5 66.0 111.45 L65.8 86.85;M-108.9 81.35 Q-112.2 51.6 -105.25 22.85 -103.3 14.95 -100.85 7.1 -97.6 -4.7 -93.15 -14.4 L-89.15 -23.35 -89.15 -24.9 -88.7 -27.5 Q-86.2 -35.7 -81.4 -42.9 -78.55 -48.05 -77.05 -52.55 -76.4 -54.6 -74.8 -56.05 -67.45 -62.8 -59.55 -69.0 -57.2 -70.8 -54.65 -72.35 L-38.05 -82.0 -30.65 -86.0 Q-30.15 -89.2 -29.9 -92.45 -29.45 -97.8 -28.2 -103.05 -25.1 -116.55 -20.7 -128.75 -20.0 -130.75 -19.7 -133.0 -17.95 -148.1 -5.7 -157.1 L-3.45 -158.6 -2.55 -159.05 Q-0.75 -161.0 1.85 -162.5 6.35 -165.1 11.25 -166.8 19.9 -169.85 28.0 -173.0 38.9 -173.25 44.4 -162.6 47.85 -156.0 51.6 -149.55 59.7 -135.75 54.75 -120.0 L53.55 -116.5 52.5 -113.5 Q54.7 -110.4 55.6 -107.25 60.5 -105.05 56.9 -100.35 L55.75 -99.1 Q55.25 -97.15 54.25 -95.15 53.15 -92.9 51.25 -91.0 51.2 -87.05 49.65 -83.55 L48.0 -80.5 48.1 -79.8 48.5 -78.25 48.75 -77.5 Q73.7 -69.35 91.0 -48.5 101.0 -36.5 104.2 -20.9 106.35 -10.45 104.85 -0.5 L104.85 0.0 Q104.85 5.7 104.0 11.25 L103.5 12.55 103.5 12.9 Q103.45 14.55 102.2 15.75 L101.95 15.85 101.75 16.2 99.0 16.5 95.65 16.85 Q89.6 32.25 86.85 48.7 L86.75 49.25 Q87.3 53.55 88.2 57.85 89.2 62.5 89.8 67.3 L90.0 69.0 Q92.3 72.2 91.45 76.2 90.95 78.6 91.65 80.9 93.35 84.35 94.2 88.2 94.7 90.25 93.95 92.15 L95.05 97.15 95.25 99.75 Q98.15 103.05 98.7 107.05 98.95 108.85 98.05 110.35 101.65 114.05 100.5 119.35 100.45 119.6 100.7 119.95 103.85 124.35 102.55 129.85 105.05 133.7 104.05 138.1 103.55 140.25 101.9 141.8 101.55 148.6 103.55 155.1 104.25 157.45 104.15 159.95 103.85 167.0 99.3 172.7 L94.0 179.45 93.15 180.5 Q91.35 191.9 79.8 190.8 74.35 190.3 73.35 184.8 72.05 183.35 71.4 181.75 72.05 191.85 67.85 200.4 67.3 201.55 66.45 201.95 L65.75 202.7 64.8 203.05 Q58.85 205.6 52.25 205.45 -2.75 203.95 -57.75 202.85 -59.6 202.8 -61.05 200.65 -62.2 198.9 -62.65 197.3 -66.3 196.3 -67.3 192.3 L-69.0 185.45 Q-71.2 184.55 -73.6 182.55 L-74.5 181.45 -75.0 181.35 -76.25 181.45 Q-77.35 188.05 -81.25 193.45 L-82.25 194.7 Q-96.7 198.55 -102.6 182.8 -105.35 175.55 -103.8 168.05 -100.9 153.9 -102.45 139.65 L-108.9 81.35 Q-112.2 51.6 -105.25 22.85 -103.3 14.95 -100.85 7.1 -97.6 -4.7 -93.15 -14.4 L-89.15 -23.35 -89.15 -24.9 -88.7 -27.5 Q-86.2 -35.7 -81.4 -42.9 -78.55 -48.05 -77.05 -52.55 -76.4 -54.6 -74.8 -56.05 -67.45 -62.8 -59.55 -69.0 -57.2 -70.8 -54.65 -72.35 L-38.05 -82.0 -30.65 -86.0 Q-30.15 -89.2 -29.9 -92.45 -29.45 -97.8 -28.2 -103.05 -25.1 -116.55 -20.7 -128.75 -20.0 -130.75 -19.7 -133.0 -17.95 -148.1 -5.7 -157.1 L-3.45 -158.6 -2.55 -159.05 Q-0.75 -161.0 1.85 -162.5 6.35 -165.1 11.25 -166.8 19.9 -169.85 28.0 -173.0 38.9 -173.25 44.4 -162.6 47.85 -156.0 51.6 -149.55 59.7 -135.75 54.75 -120.0 L53.55 -116.5 52.5 -113.5 Q54.7 -110.4 55.6 -107.25 60.5 -105.05 56.9 -100.35 L55.75 -99.1 Q55.25 -97.15 54.25 -95.15 53.15 -92.9 51.25 -91.0 51.2 -87.05 49.65 -83.55 L48.0 -80.5 48.1 -79.8 48.5 -78.25 48.75 -77.5 Q73.7 -69.35 91.0 -48.5 101.0 -36.5 104.2 -20.9 106.35 -10.45 104.85 -0.5 L104.85 0.0 Q104.85 5.7 104.0 11.25 L103.5 12.55 103.5 12.9 Q103.45 14.55 102.2 15.75 L101.95 15.85 101.75 16.2 99.0 16.5 95.65 16.85 Q89.6 32.25 86.85 48.7 L86.75 49.25 Q87.3 53.55 88.2 57.85 89.2 62.5 89.8 67.3 L90.0 69.0 Q92.3 72.2 91.45 76.2 90.95 78.6 91.65 80.9 93.35 84.35 94.2 88.2 94.7 90.25 93.95 92.15 L95.05 97.15 95.25 99.75 Q98.15 103.05 98.7 107.05 98.95 108.85 98.05 110.35 101.65 114.05 100.5 119.35 100.45 119.6 100.7 119.95 103.85 124.35 102.55 129.85 105.05 133.7 104.05 138.1 103.55 140.25 101.9 141.8 101.55 148.6 103.55 155.1 104.25 157.45 104.15 159.95 103.85 167.0 99.3 172.7 L94.0 179.45 93.15 180.5 Q91.35 191.9 79.8 190.8 74.35 190.3 73.35 184.8 72.05 183.35 71.4 181.75 72.05 191.85 67.85 200.4 67.3 201.55 66.45 201.95 L65.75 202.7 64.8 203.05 Q58.85 205.6 52.25 205.45 -2.75 203.95 -57.75 202.85 L-61.05 200.65 Q-62.2 198.9 -62.65 197.3 -66.3 196.3 -67.3 192.3 L-69.0 185.45 Q-71.2 184.55 -73.6 182.55 L-74.5 181.45 -75.0 181.35 -76.25 181.45 Q-77.35 188.05 -81.25 193.45 L-82.25 194.7 Q-96.7 198.55 -102.6 182.8 -105.35 175.55 -103.8 168.05 -100.9 153.9 -102.45 139.65 L-108.9 81.35 M65.8 86.85 Q66.95 92.4 68.8 97.8 69.45 100.7 70.6 103.5 L80.25 127.2 79.55 130.5 Q78.85 133.5 80.05 136.15 79.6 141.25 77.4 145.6 L76.35 147.6 Q71.55 156.8 72.75 167.6 73.1 170.9 71.75 174.05 71.15 175.5 70.9 176.9 L70.75 175.15 Q69.85 162.05 66.25 149.7 66.95 147.5 66.9 145.2 66.75 139.2 66.0 133.2 68.1 131.4 68.65 128.7 70.4 119.5 66.0 111.45 L65.8 86.85 Q66.95 92.4 68.8 97.8 69.45 100.7 70.6 103.5 L80.25 127.2 79.55 130.5 Q78.85 133.5 80.05 136.15 79.6 141.25 77.4 145.6 L76.35 147.6 Q71.55 156.8 72.75 167.6 73.1 170.9 71.75 174.05 71.15 175.5 70.9 176.9 L70.75 175.15 Q69.85 162.05 66.25 149.7 66.95 147.5 66.9 145.2 66.75 139.2 66.0 133.2 68.1 131.4 68.65 128.7 70.4 119.5 66.0 111.45 L65.8 86.85"/>
    </path>
  </g>
</svg>
