<?xml version="1.0" encoding="UTF-8" standalone="no"?>
<svg xmlns:xlink="http://www.w3.org/1999/xlink" height="544.45px" width="634.3px" xmlns="http://www.w3.org/2000/svg">
  <g transform="matrix(1.0, 0.0, 0.0, 1.0, 182.7, 240.5)">
    <path d="M-117.7 160.95 L63.0 303.95 254.9 273.45 261.65 245.25 363.0 167.05 268.6 -54.85 379.55 -175.5 224.5 -169.5 107.6 -112.2 100.9 -122.4 5.7 -88.0 -12.0 62.05 -44.85 128.9 -44.55 128.8 -117.7 160.95" fill="#ffffff" fill-rule="evenodd" stroke="none">
      <animate attributeName="fill" dur="2s" repeatCount="indefinite" values="#ffffff;#ffffff"/>
      <animate attributeName="fill-opacity" dur="2s" repeatCount="indefinite" values="1.0;1.0"/>
      <animate attributeName="d" dur="2s" repeatCount="indefinite" values="M-117.7 160.95 L63.0 303.95 254.9 273.45 261.65 245.25 363.0 167.05 268.6 -54.85 379.55 -175.5 224.5 -169.5 107.6 -112.2 100.9 -122.4 5.7 -88.0 -12.0 62.05 -44.85 128.9 -44.55 128.8 -117.7 160.95;M-182.7 241.95 L63.0 303.95 254.9 273.45 261.65 245.25 434.0 289.05 451.6 -21.85 413.55 -240.5 224.5 -169.5 199.6 -222.4 118.9 -222.4 -119.0 -184.0 -119.0 8.05 -104.85 84.9 -135.55 128.9 -182.7 241.95"/>
    </path>
    <path d="M-117.7 160.95 L-44.55 128.8 -44.85 128.9 -12.0 62.05 5.7 -88.0 100.9 -122.4 107.6 -112.2 224.5 -169.5 379.55 -175.5 268.6 -54.85 363.0 167.05 261.65 245.25 254.9 273.45 63.0 303.95 -117.7 160.95" fill="none" stroke="#000000" stroke-linecap="round" stroke-linejoin="round" stroke-opacity="0.0" stroke-width="1.0">
      <animate attributeName="stroke" dur="2s" repeatCount="indefinite" values="#000000;#000001"/>
      <animate attributeName="stroke-width" dur="2s" repeatCount="indefinite" values="0.0;0.0"/>
      <animate attributeName="fill-opacity" dur="2s" repeatCount="indefinite" values="0.0;0.0"/>
      <animate attributeName="d" dur="2s" repeatCount="indefinite" values="M-117.7 160.95 L-44.55 128.8 -44.85 128.9 -12.0 62.05 5.7 -88.0 100.9 -122.4 107.6 -112.2 224.5 -169.5 379.55 -175.5 268.6 -54.85 363.0 167.05 261.65 245.25 254.9 273.45 63.0 303.95 -117.7 160.95;M-182.7 241.95 L-135.55 128.9 -104.85 84.9 -119.0 8.05 -119.0 -184.0 118.9 -222.4 199.6 -222.4 224.5 -169.5 413.55 -240.5 451.6 -21.85 434.0 289.05 261.65 245.25 254.9 273.45 63.0 303.95 -182.7 241.95"/>
    </path>
  </g>
</svg>
