<?xml version="1.0" encoding="UTF-8" standalone="no"?>
<svg xmlns:xlink="http://www.w3.org/1999/xlink" height="281.25px" width="712.9px" xmlns="http://www.w3.org/2000/svg">
  <g transform="matrix(1.0, 0.0, 0.0, 1.0, 333.9, 120.25)">
    <path d="M-327.95 -18.8 L-327.95 -10.0 379.0 -10.0 379.0 -18.8 -327.95 -18.8 -327.95 -10.0 379.0 -10.0 379.0 -18.8 -327.95 -18.8 -327.95 -10.0 379.0 -10.0 379.0 -18.8 -327.95 -18.8 M-327.95 24.0 L-327.95 30.2 379.0 30.2 379.0 24.0 -327.95 24.0 M-333.9 79.2 L-333.9 88.0 373.05 88.0 373.05 79.2 -333.9 79.2 M-333.9 122.0 L-333.9 128.2 373.05 128.2 373.05 122.0 -333.9 122.0" fill="#ff0000" fill-rule="evenodd" stroke="none">
      <animate attributeName="fill" dur="2s" repeatCount="indefinite" values="#ff0000;#ff0001"/>
      <animate attributeName="fill-opacity" dur="2s" repeatCount="indefinite" values="1.0;1.0"/>
      <animate attributeName="d" dur="2s" repeatCount="indefinite" values="M-327.95 -18.8 L-327.95 -10.0 379.0 -10.0 379.0 -18.8 -327.95 -18.8 -327.95 -10.0 379.0 -10.0 379.0 -18.8 -327.95 -18.8 -327.95 -10.0 379.0 -10.0 379.0 -18.8 -327.95 -18.8 M-327.95 24.0 L-327.95 30.2 379.0 30.2 379.0 24.0 -327.95 24.0 M-333.9 79.2 L-333.9 88.0 373.05 88.0 373.05 79.2 -333.9 79.2 M-333.9 122.0 L-333.9 128.2 373.05 128.2 373.05 122.0 -333.9 122.0;M-327.95 -120.25 L-327.95 -107.5 379.0 -107.5 379.0 -120.25 -327.95 -120.25 -327.95 34.0 379.0 34.0 379.0 29.2 -327.95 29.2 -327.95 -46.55 379.0 -46.55 379.0 -57.95 -327.95 -57.95 M-331.95 6.75 L-331.95 19.5 375.0 19.5 375.0 6.75 -331.95 6.75 M-331.95 156.2 L-331.95 161.0 375.0 161.0 375.0 156.2 -331.95 156.2 M-331.95 69.05 L-331.95 80.45 375.0 80.45 375.0 69.05 -331.95 69.05"/>
    </path>
    <path d="M-333.9 122.0 L373.05 122.0 373.05 128.2 -333.9 128.2 -333.9 122.0 M-333.9 79.2 L373.05 79.2 373.05 88.0 -333.9 88.0 -333.9 79.2 M-327.95 24.0 L379.0 24.0 379.0 30.2 -327.95 30.2 -327.95 24.0 M-327.95 -18.8 L379.0 -18.8 379.0 -10.0 -327.95 -10.0 -327.95 -18.8 379.0 -18.8 379.0 -10.0 -327.95 -10.0 -327.95 -18.8 379.0 -18.8 379.0 -10.0 -327.95 -10.0 -327.95 -18.8" fill="none" stroke="#000000" stroke-linecap="round" stroke-linejoin="round" stroke-opacity="0.0" stroke-width="1.0">
      <animate attributeName="stroke" dur="2s" repeatCount="indefinite" values="#000000;#000001"/>
      <animate attributeName="stroke-width" dur="2s" repeatCount="indefinite" values="0.0;0.0"/>
      <animate attributeName="fill-opacity" dur="2s" repeatCount="indefinite" values="0.0;0.0"/>
      <animate attributeName="d" dur="2s" repeatCount="indefinite" values="M-333.9 122.0 L373.05 122.0 373.05 128.2 -333.9 128.2 -333.9 122.0 M-333.9 79.2 L373.05 79.2 373.05 88.0 -333.9 88.0 -333.9 79.2 M-327.95 24.0 L379.0 24.0 379.0 30.2 -327.95 30.2 -327.95 24.0 M-327.95 -18.8 L379.0 -18.8 379.0 -10.0 -327.95 -10.0 -327.95 -18.8 379.0 -18.8 379.0 -10.0 -327.95 -10.0 -327.95 -18.8 379.0 -18.8 379.0 -10.0 -327.95 -10.0 -327.95 -18.8;M-331.95 69.05 L375.0 69.05 375.0 80.45 -331.95 80.45 -331.95 69.05 M-331.95 156.2 L375.0 156.2 375.0 161.0 -331.95 161.0 -331.95 156.2 M-331.95 6.75 L375.0 6.75 375.0 19.5 -331.95 19.5 -331.95 6.75 M-327.95 -57.95 L379.0 -57.95 379.0 -46.55 -327.95 -46.55 -327.95 -57.95 379.0 29.2 379.0 34.0 -327.95 34.0 -327.95 29.2 379.0 -120.25 379.0 -107.5 -327.95 -107.5 -327.95 -120.25"/>
    </path>
  </g>
</svg>
