<?xml version="1.0" encoding="UTF-8" standalone="no"?>
<svg xmlns:xlink="http://www.w3.org/1999/xlink" height="322.15px" width="723.95px" xmlns="http://www.w3.org/2000/svg">
  <g transform="matrix(1.0, 0.0, 0.0, 1.0, 341.95, 120.25)">
    <path d="M-327.95 -120.25 L-327.95 -107.5 379.0 -107.5 379.0 -120.25 -327.95 -120.25 -327.95 -107.5 379.0 -107.5 379.0 -120.25 -327.95 -120.25 -327.95 -107.5 379.0 -107.5 379.0 -120.25 -327.95 -120.25 -327.95 -107.5 379.0 -107.5 379.0 -120.25 -327.95 -120.25 -327.95 -107.5 379.0 -107.5 379.0 -120.25 -327.95 -120.25 M-327.95 29.2 L-327.95 34.0 379.0 34.0 379.0 29.2 -327.95 29.2 M-327.95 -57.95 L-327.95 -46.55 379.0 -46.55 379.0 -57.95 -327.95 -57.95 M-331.95 6.75 L-331.95 19.5 375.0 19.5 375.0 6.75 -331.95 6.75 M-331.95 156.2 L-331.95 161.0 375.0 161.0 375.0 156.2 -331.95 156.2 M-331.95 69.05 L-331.95 80.45 375.0 80.45 375.0 69.05 -331.95 69.05" fill="#ff0000" fill-rule="evenodd" stroke="none">
      <animate attributeName="fill" dur="2s" repeatCount="indefinite" values="#ff0000;#ff0001"/>
      <animate attributeName="fill-opacity" dur="2s" repeatCount="indefinite" values="1.0;1.0"/>
      <animate attributeName="d" dur="2s" repeatCount="indefinite" values="M-327.95 -120.25 L-327.95 -107.5 379.0 -107.5 379.0 -120.25 -327.95 -120.25 -327.95 -107.5 379.0 -107.5 379.0 -120.25 -327.95 -120.25 -327.95 -107.5 379.0 -107.5 379.0 -120.25 -327.95 -120.25 -327.95 -107.5 379.0 -107.5 379.0 -120.25 -327.95 -120.25 -327.95 -107.5 379.0 -107.5 379.0 -120.25 -327.95 -120.25 M-327.95 29.2 L-327.95 34.0 379.0 34.0 379.0 29.2 -327.95 29.2 M-327.95 -57.95 L-327.95 -46.55 379.0 -46.55 379.0 -57.95 -327.95 -57.95 M-331.95 6.75 L-331.95 19.5 375.0 19.5 375.0 6.75 -331.95 6.75 M-331.95 156.2 L-331.95 161.0 375.0 161.0 375.0 156.2 -331.95 156.2 M-331.95 69.05 L-331.95 80.45 375.0 80.45 375.0 69.05 -331.95 69.05;M-324.95 -102.45 L-324.95 -94.0 382.0 -94.0 382.0 -102.45 -324.95 -102.45 -324.95 -105.45 382.0 -105.45 382.0 -111.0 -324.95 -111.0 -327.95 70.5 379.0 70.5 379.0 64.95 -327.95 64.95 -327.95 81.95 379.0 81.95 379.0 73.5 -327.95 73.5 -327.95 25.95 379.0 25.95 379.0 8.95 -327.95 8.95 M-330.95 184.9 L-330.95 201.9 376.0 201.9 376.0 184.9 -330.95 184.9 M-338.95 -69.05 L-338.95 -64.45 368.0 -64.45 368.0 -69.05 -338.95 -69.05 M-338.95 -58.45 L-338.95 -52.05 368.0 -52.05 368.0 -58.45 -338.95 -58.45 M-341.95 117.5 L-341.95 123.9 365.0 123.9 365.0 117.5 -341.95 117.5 M-341.95 106.9 L-341.95 111.5 365.0 111.5 365.0 106.9 -341.95 106.9"/>
    </path>
    <path d="M-331.95 69.05 L375.0 69.05 375.0 80.45 -331.95 80.45 -331.95 69.05 M-331.95 156.2 L375.0 156.2 375.0 161.0 -331.95 161.0 -331.95 156.2 M-331.95 6.75 L375.0 6.75 375.0 19.5 -331.95 19.5 -331.95 6.75 M-327.95 -57.95 L379.0 -57.95 379.0 -46.55 -327.95 -46.55 -327.95 -57.95 M-327.95 29.2 L379.0 29.2 379.0 34.0 -327.95 34.0 -327.95 29.2 M-327.95 -120.25 L379.0 -120.25 379.0 -107.5 -327.95 -107.5 -327.95 -120.25 379.0 -120.25 379.0 -107.5 -327.95 -107.5 -327.95 -120.25 379.0 -120.25 379.0 -107.5 -327.95 -107.5 -327.95 -120.25 379.0 -120.25 379.0 -107.5 -327.95 -107.5 -327.95 -120.25 379.0 -120.25 379.0 -107.5 -327.95 -107.5 -327.95 -120.25" fill="none" stroke="#000000" stroke-linecap="round" stroke-linejoin="round" stroke-opacity="0.0" stroke-width="1.0">
      <animate attributeName="stroke" dur="2s" repeatCount="indefinite" values="#000000;#000001"/>
      <animate attributeName="stroke-width" dur="2s" repeatCount="indefinite" values="0.0;0.0"/>
      <animate attributeName="fill-opacity" dur="2s" repeatCount="indefinite" values="0.0;0.0"/>
      <animate attributeName="d" dur="2s" repeatCount="indefinite" values="M-331.95 69.05 L375.0 69.05 375.0 80.45 -331.95 80.45 -331.95 69.05 M-331.95 156.2 L375.0 156.2 375.0 161.0 -331.95 161.0 -331.95 156.2 M-331.95 6.75 L375.0 6.75 375.0 19.5 -331.95 19.5 -331.95 6.75 M-327.95 -57.95 L379.0 -57.95 379.0 -46.55 -327.95 -46.55 -327.95 -57.95 M-327.95 29.2 L379.0 29.2 379.0 34.0 -327.95 34.0 -327.95 29.2 M-327.95 -120.25 L379.0 -120.25 379.0 -107.5 -327.95 -107.5 -327.95 -120.25 379.0 -120.25 379.0 -107.5 -327.95 -107.5 -327.95 -120.25 379.0 -120.25 379.0 -107.5 -327.95 -107.5 -327.95 -120.25 379.0 -120.25 379.0 -107.5 -327.95 -107.5 -327.95 -120.25 379.0 -120.25 379.0 -107.5 -327.95 -107.5 -327.95 -120.25;M-341.95 106.9 L365.0 106.9 365.0 111.5 -341.95 111.5 -341.95 106.9 M-341.95 117.5 L365.0 117.5 365.0 123.9 -341.95 123.9 -341.95 117.5 M-338.95 -58.45 L368.0 -58.45 368.0 -52.05 -338.95 -52.05 -338.95 -58.45 M-338.95 -69.05 L368.0 -69.05 368.0 -64.45 -338.95 -64.45 -338.95 -69.05 M-330.95 184.9 L376.0 184.9 376.0 201.9 -330.95 201.9 -330.95 184.9 M-327.95 8.95 L379.0 8.95 379.0 25.95 -327.95 25.95 -327.95 8.95 379.0 73.5 379.0 81.95 -327.95 81.95 -327.95 73.5 379.0 64.95 379.0 70.5 -327.95 70.5 -327.95 64.95 382.0 -111.0 382.0 -105.45 -324.95 -105.45 -324.95 -111.0 382.0 -102.45 382.0 -94.0 -324.95 -94.0 -324.95 -102.45"/>
    </path>
  </g>
</svg>
