<?xml version="1.0" encoding="UTF-8" standalone="no"?>
<svg xmlns:xlink="http://www.w3.org/1999/xlink" height="36.35px" width="54.15px" xmlns="http://www.w3.org/2000/svg">
  <g transform="matrix(1.0, 0.0, 0.0, 1.0, 24.0, 35.1)">
    <path d="M-23.9 1.25 L-23.8 1.25 0.8 1.25 0.8 -14.35 Q0.8 -23.9 0.8 -33.4 L0.8 -35.1 Q-6.3 -32.3 -11.35 -28.4 -17.7 -23.5 -20.85 -16.85 -24.55 -9.0 -23.9 1.25" fill="#ff0000" fill-rule="evenodd" stroke="none">
      <animate attributeName="fill" dur="2s" repeatCount="indefinite" values="#ff0000;#ff0001"/>
      <animate attributeName="fill-opacity" dur="2s" repeatCount="indefinite" values="1.0;1.0"/>
      <animate attributeName="d" dur="2s" repeatCount="indefinite" values="M-23.9 1.25 L-23.8 1.25 0.8 1.25 0.8 -14.35 Q0.8 -23.9 0.8 -33.4 L0.8 -35.1 Q-6.3 -32.3 -11.35 -28.4 -17.7 -23.5 -20.85 -16.85 -24.55 -9.0 -23.9 1.25;M-23.9 1.25 L-23.9 1.25 9.2 1.25 30.15 1.25 Q29.1 -13.45 20.35 -22.0 L18.6 -23.6 Q11.35 -29.7 1.8 -29.65 -8.85 -29.65 -16.1 -21.9 -24.1 -13.3 -23.9 1.25"/>
    </path>
    <path d="M-23.9 1.25 Q-24.55 -9.0 -20.85 -16.85 -17.7 -23.5 -11.35 -28.4 -6.3 -32.3 0.8 -35.1 L0.8 -33.4 Q0.8 -23.9 0.8 -14.35 L0.8 1.25 -23.8 1.25 -23.9 1.25" fill="none" stroke="#000000" stroke-linecap="round" stroke-linejoin="round" stroke-opacity="0.0" stroke-width="1.0">
      <animate attributeName="stroke" dur="2s" repeatCount="indefinite" values="#000000;#000001"/>
      <animate attributeName="stroke-width" dur="2s" repeatCount="indefinite" values="0.0;0.0"/>
      <animate attributeName="fill-opacity" dur="2s" repeatCount="indefinite" values="0.0;0.0"/>
      <animate attributeName="d" dur="2s" repeatCount="indefinite" values="M-23.9 1.25 Q-24.55 -9.0 -20.85 -16.85 -17.7 -23.5 -11.35 -28.4 -6.3 -32.3 0.8 -35.1 L0.8 -33.4 Q0.8 -23.9 0.8 -14.35 L0.8 1.25 -23.8 1.25 -23.9 1.25;M-23.9 1.25 Q-24.1 -13.3 -16.1 -21.9 -8.85 -29.65 1.8 -29.65 11.35 -29.7 18.6 -23.6 L20.35 -22.0 Q29.1 -13.45 30.15 1.25 L9.2 1.25 -23.9 1.25 -23.9 1.25"/>
    </path>
  </g>
</svg>
